<svg width="28" height="36" viewBox="0 0 28 36" fill="none" xmlns="http://www.w3.org/2000/svg">
<path fill-rule="evenodd" clip-rule="evenodd" d="M6.49994 8C6.49994 3.85786 9.85781 0.5 13.9999 0.5C18.1421 0.5 21.4999 3.85786 21.4999 8C21.4999 12.1421 18.1421 15.5 13.9999 15.5C9.85781 15.5 6.49994 12.1421 6.49994 8Z" fill="#A3A7AE"/>
<path fill-rule="evenodd" clip-rule="evenodd" d="M0.252018 31.5089C0.380918 24.0259 6.48658 18 13.9999 18C21.5135 18 27.6193 24.0262 27.7479 31.5094C27.7564 32.0057 27.4705 32.46 27.0194 32.667C23.0545 34.4863 18.6441 35.5 14.0005 35.5C9.35637 35.5 4.94566 34.4861 0.980477 32.6665C0.52936 32.4595 0.243469 32.0052 0.252018 31.5089Z" fill="#A3A7AE"/>
</svg>

