<svg width="214" height="142" viewBox="0 0 214 142" fill="none" xmlns="http://www.w3.org/2000/svg">
<g clip-path="url(#clip0_567_35184)">
<rect width="214" height="142" rx="4" fill="#F5F6F7"/>
<rect width="214" height="148" transform="translate(0.5 -3)" fill="#F5F6F7"/>
<path d="M74.5769 88.2957V102.21H89.3282L74.5769 88.2957Z" fill="#A3A7AE"/>
<path d="M74.5769 39.7556V84.6329L95.991 64.0945H103.058L80.8627 86.0512L96.1418 102.211H140.423V99.0985H107.863L92.8241 82.9116L90.5552 85.0322L103.627 99.0985H97.4579L85.2017 86.127L110.612 60.9825H94.7503L86.7166 68.6732V61.2785H77.6752V42.8677H137.311V101.391H140.409V39.7556H74.5769ZM83.6182 64.3906V71.6613L77.6752 77.3622V64.3906H83.6182Z" fill="#A3A7AE"/>
</g>
<rect x="0.5" y="0.5" width="213" height="141" rx="3.5" stroke="#EEEEEE"/>
<defs>
<clipPath id="clip0_567_35184">
<rect width="214" height="142" rx="4" fill="white"/>
</clipPath>
</defs>
</svg>

