<svg width="24" height="24" viewBox="0 0 24 24" fill="none" xmlns="http://www.w3.org/2000/svg">
<g clip-path="url(#clip0_1628_635)">
<path d="M19.9055 9C20.2876 9 20.6548 9.05664 20.9999 9.16156V9C20.9999 7.34315 19.6567 6 17.9999 6H14.1212C13.9223 6 13.7315 5.92098 13.5909 5.78033L11.4695 3.65901C11.0476 3.23705 10.4753 3 9.87856 3H5.99988C4.34302 3 2.99988 4.34315 2.99988 6V9.16152C3.34496 9.05663 3.71211 9 4.09409 9H19.9055Z" fill="#5D6169"/>
<path d="M4.09417 10.5C2.72494 10.5 1.67315 11.7127 1.86679 13.0682L2.72393 19.0682C2.88228 20.1767 3.8316 21 4.95132 21H19.0485C20.1682 21 21.1175 20.1767 21.2759 19.0682L22.133 13.0682C22.3267 11.7127 21.2749 10.5 19.9056 10.5H4.09417Z" fill="#5D6169"/>
</g>
<defs>
<clipPath id="clip0_1628_635">
<rect width="24" height="24" fill="white"/>
</clipPath>
</defs>
</svg>
