<svg width="280" height="184" viewBox="0 0 280 184" fill="none" xmlns="http://www.w3.org/2000/svg">
<path d="M80.0188 145.341L56.9781 95.6702L66.557 67.2814L67.8665 67.721L58.4524 95.5969L81.2642 144.755L80.0188 145.341Z" fill="black"/>
<path d="M60.284 95.9083C60.284 97.3277 59.1393 98.4724 57.7198 98.4724C56.3004 98.4724 55.1557 97.3277 55.1557 95.9083C55.1557 94.4888 56.3004 93.3441 57.7198 93.3441C59.1393 93.3441 60.284 94.4888 60.284 95.9083Z" fill="white"/>
<path d="M57.7198 98.6281C56.218 98.6281 55 97.4101 55 95.9083C55 94.4064 56.218 93.1884 57.7198 93.1884C59.2217 93.1884 60.4397 94.4156 60.4397 95.9083C60.4397 97.401 59.2217 98.6281 57.7198 98.6281ZM57.7198 93.4998C56.392 93.4998 55.3114 94.5804 55.3114 95.9083C55.3114 97.2361 56.392 98.3168 57.7198 98.3168C59.0477 98.3168 60.1283 97.2361 60.1283 95.9083C60.1283 94.5804 59.0477 93.4998 57.7198 93.4998Z" fill="black"/>
<path d="M66.5295 69.2137L75.5407 81.3842V54.7537L66.5295 66.9243C66.0258 67.6019 66.0258 68.5269 66.5295 69.2045V69.2137Z" fill="black"/>
<path d="M75.7513 81.485C76.6516 81.485 77.3814 75.4784 77.3814 68.069C77.3814 60.6595 76.6516 54.653 75.7513 54.653C74.8511 54.653 74.1212 60.6595 74.1212 68.069C74.1212 75.4784 74.8511 81.485 75.7513 81.485Z" fill="#1852FD"/>
<path d="M136.146 142.319H77.8942C76.9687 142.319 76.2184 143.07 76.2184 143.995V146.102C76.2184 147.027 76.9687 147.777 77.8942 147.777H136.146C137.072 147.777 137.822 147.027 137.822 146.102V143.995C137.822 143.07 137.072 142.319 136.146 142.319Z" fill="black"/>
<path d="M143.372 147.475H70.6596V163.803H143.372V147.475Z" fill="black"/>
<path d="M145.533 148.73V151.697C145.533 152.384 145.084 152.942 144.535 152.942H69.4966C68.9471 152.942 68.4984 152.384 68.4984 151.697V148.73C68.4984 148.043 68.9471 147.484 69.4966 147.484H144.535C145.084 147.484 145.533 148.043 145.533 148.73Z" fill="#AAB6C2"/>
<path d="M144.809 158.281H69.2219C68.8223 158.281 68.4984 158.605 68.4984 159.005V163.016C68.4984 163.415 68.8223 163.739 69.2219 163.739H144.809C145.209 163.739 145.533 163.415 145.533 163.016V159.005C145.533 158.605 145.209 158.281 144.809 158.281Z" fill="#AAB6C2"/>
<path d="M107.016 70.7705C90.3486 70.7705 76.7861 66.8144 76.7861 61.9425C76.7861 57.0706 90.3486 53.1145 107.016 53.1145C123.683 53.1145 137.245 57.0706 137.245 61.9425C137.245 66.8144 123.683 70.7705 107.016 70.7705V70.7705ZM107.016 53.4167C90.5135 53.4167 77.0791 57.2446 77.0791 61.9425C77.0791 66.6404 90.5043 70.4683 107.016 70.4683C123.527 70.4683 136.943 66.6404 136.943 61.9425C136.943 57.2446 123.518 53.4167 107.016 53.4167V53.4167Z" fill="black"/>
<path d="M122.703 87.1078C117.785 87.1078 108.261 78.9208 99.8177 67.0525C95.1564 60.4956 91.5025 53.8013 89.5428 48.206C87.5647 42.5557 87.5464 38.682 89.4878 37.2992C91.4384 35.9163 95.0923 37.2076 99.7719 40.9348C104.406 44.6253 109.534 50.2664 114.195 56.8325C118.856 63.3894 122.51 70.0837 124.47 75.679C126.448 81.3293 126.467 85.203 124.525 86.5858C124.021 86.9429 123.408 87.1169 122.694 87.1169L122.703 87.1078ZM91.3468 37.0702C90.6783 37.0702 90.1197 37.2259 89.671 37.5464C87.8669 38.8285 87.931 42.6747 89.8358 48.1052C91.7864 53.6731 95.422 60.3399 100.074 66.8785C109.635 80.3311 120.532 89.0584 124.369 86.3294C126.173 85.0473 126.109 81.2011 124.205 75.7706C122.254 70.2027 118.618 63.5359 113.966 56.9973C109.314 50.4587 104.213 44.8359 99.5979 41.1637C96.2187 38.4805 93.3432 37.0611 91.356 37.0611L91.3468 37.0702Z" fill="black"/>
<path d="M91.3285 87.1078C90.6142 87.1078 90.0006 86.9338 89.497 86.5766C87.5464 85.1938 87.5647 81.3201 89.5519 75.6698C91.5117 70.0745 95.1656 63.3802 99.8268 56.8233C104.488 50.2664 109.616 44.6161 114.25 40.9256C118.939 37.1984 122.593 35.9072 124.534 37.29C126.485 38.6728 126.467 42.5465 124.479 48.1968C122.52 53.7921 118.866 60.4864 114.204 67.0433C105.77 78.9116 96.237 87.0986 91.3193 87.0986L91.3285 87.1078ZM122.684 37.0702C120.697 37.0702 117.822 38.4805 114.442 41.1728C109.827 44.8451 104.726 50.4679 100.074 57.0065C95.422 63.5451 91.7955 70.2119 89.8358 75.7797C87.931 81.2102 87.8761 85.0656 89.671 86.3385C90.1472 86.6774 90.7241 86.833 91.3926 86.833C96.1638 86.833 105.578 78.6735 113.957 66.8785C118.609 60.3399 122.236 53.6731 124.195 48.1052C126.1 42.6747 126.155 38.8193 124.36 37.5464C123.912 37.2259 123.344 37.0702 122.675 37.0702H122.684Z" fill="black"/>
<path d="M110.706 61.8967C110.706 63.9388 109.049 65.5872 107.016 65.5872C104.983 65.5872 103.325 63.9297 103.325 61.8967C103.325 59.8637 104.973 58.2061 107.016 58.2061C109.058 58.2061 110.706 59.8637 110.706 61.8967Z" fill="#1852FD"/>
<path d="M107.016 65.7338C104.9 65.7338 103.169 64.0121 103.169 61.8875C103.169 59.763 104.891 58.0413 107.016 58.0413C109.14 58.0413 110.862 59.763 110.862 61.8875C110.862 64.0121 109.14 65.7338 107.016 65.7338ZM107.016 58.3527C105.065 58.3527 103.472 59.937 103.472 61.8967C103.472 63.8564 105.065 65.4407 107.016 65.4407C108.966 65.4407 110.56 63.8473 110.56 61.8967C110.56 59.9461 108.966 58.3527 107.016 58.3527Z" fill="black"/>
<path d="M175.753 151.734C176.275 151.23 181.083 152.292 181.092 152.594C181.129 153.51 180.68 159.417 180.158 159.82C179.654 160.204 174.792 159.591 174.81 158.712C174.819 157.952 175.259 152.228 175.753 151.734V151.734Z" fill="white"/>
<path d="M179.325 160.159C178.07 160.159 176.037 159.82 175.158 159.38C175.011 159.307 174.581 159.087 174.581 158.712C174.581 158.382 174.975 152.182 175.597 151.578C176.202 150.992 180.057 151.88 180.918 152.219C181.12 152.301 181.321 152.393 181.33 152.585C181.358 153.254 180.964 159.49 180.305 160.003C180.158 160.113 179.801 160.159 179.325 160.159ZM175.918 151.898C175.515 152.338 175.057 157.677 175.039 158.712C175.039 158.712 175.048 158.794 175.286 158.931C176.403 159.563 179.682 159.856 180.021 159.637C180.424 159.206 180.881 153.931 180.863 152.695C180.231 152.329 176.321 151.578 175.909 151.898H175.918Z" fill="black"/>
<path d="M180.561 157.878C180.561 157.878 182.74 161.175 181.065 163.675C181.065 163.675 169.242 163.932 165.698 163.291C165.698 163.291 165.716 158.941 168.775 158.638C171.843 158.345 174.892 158.529 174.892 158.529C174.892 158.529 178.281 160.223 180.561 157.869V157.878Z" fill="black"/>
<path d="M202.988 153.547C203.309 152.897 208.199 152.31 208.318 152.594C208.657 153.446 210.04 158.098 209.673 158.638C209.325 159.17 204.398 160.131 204.124 159.298C203.886 158.574 202.677 154.179 202.988 153.547V153.547Z" fill="white"/>
<path d="M205.223 159.847C205.03 159.847 204.856 159.847 204.719 159.82C204.261 159.765 203.995 159.609 203.913 159.371C203.895 159.325 202.393 154.261 202.796 153.446C203.171 152.695 207.1 152.237 208.034 152.292C208.254 152.292 208.474 152.329 208.547 152.503C208.675 152.814 210.378 158.016 209.884 158.758C209.536 159.28 206.77 159.847 205.241 159.847H205.223ZM203.199 153.648C202.97 154.124 203.968 158.107 204.343 159.225C204.343 159.243 204.417 159.307 204.664 159.353C206.01 159.6 209.225 158.831 209.49 158.51C209.719 158.052 208.602 153.977 208.144 152.759C207.43 152.622 203.483 153.217 203.208 153.648H203.199Z" fill="black"/>
<path d="M209.893 157.823C209.893 157.823 212.21 161.029 210.626 163.602C210.626 163.602 198.831 164.325 195.25 163.822C195.25 163.822 195.094 159.472 198.144 159.06C201.193 158.648 204.252 158.712 204.252 158.712C204.252 158.712 207.704 160.269 209.884 157.833L209.893 157.823Z" fill="black"/>
<path d="M162.044 71.7046C162.758 72.5837 166.248 74.168 167.2 74.0215C173.61 73.0874 177.081 67.5653 179.599 64.9462C180.03 64.5067 180.424 64.0488 180.762 63.5817C182.484 61.2923 183.217 58.8564 183.519 56.8234C183.821 54.7537 183.675 53.3068 183.675 53.3068C183.675 53.3068 187.264 36.5666 183.574 38.2608C179.865 39.9824 175.231 46.6217 171.852 52.4552C171.751 52.62 171.66 52.7848 171.559 52.9405C171.348 53.3068 171.147 53.664 170.945 53.9937C170.423 54.9094 169.938 55.7611 169.489 56.4937C168.537 58.1146 166.101 61.8326 166.101 61.8326C166.101 61.8326 159.077 68.069 162.035 71.6863L162.044 71.7046Z" fill="white"/>
<path d="M167.072 74.2596C165.881 74.2596 162.603 72.7669 161.861 71.8511C158.857 68.1789 165.414 62.1715 165.936 61.7044C166.156 61.3748 168.4 57.9315 169.297 56.4021C169.709 55.7153 170.158 54.9369 170.643 54.0944L170.753 53.9021C170.9 53.6548 171.055 53.3984 171.202 53.1329L171.367 52.849C171.431 52.7482 171.486 52.6475 171.541 52.5468L171.651 52.3544C174.251 47.858 179.251 40.0282 183.473 38.0685C184.05 37.8029 184.435 37.9586 184.654 38.1326C186.715 39.781 184.233 51.7867 183.904 53.3252C183.922 53.5724 184.023 54.9369 183.748 56.86C183.363 59.4516 182.42 61.7594 180.946 63.7191C180.598 64.1862 180.204 64.6532 179.764 65.1111C179.306 65.5873 178.803 66.1734 178.272 66.7961C175.854 69.6167 172.548 73.4812 167.227 74.2505C167.182 74.2505 167.127 74.2596 167.072 74.2596V74.2596ZM184.059 38.3798C183.958 38.3798 183.83 38.4073 183.665 38.4806C179.407 40.4586 174.114 49.0027 172.044 52.5834L171.934 52.7757C171.87 52.8764 171.815 52.9863 171.751 53.0871L171.596 53.3618C171.44 53.6274 171.293 53.8929 171.138 54.1402L171.028 54.3234C170.542 55.1659 170.094 55.9534 169.682 56.6402C168.738 58.2428 166.321 61.9517 166.293 61.9883L166.257 62.0341C166.183 62.0982 159.425 68.1698 162.209 71.5673C162.868 72.3914 166.275 73.9299 167.154 73.8017C172.301 73.0508 175.552 69.2595 177.914 66.4939C178.446 65.8712 178.958 65.2759 179.425 64.7906C179.856 64.351 180.24 63.9023 180.57 63.4444C181.999 61.5488 182.915 59.3051 183.281 56.7868C183.574 54.7721 183.436 53.3435 183.436 53.3343V53.2611C184.233 49.5797 185.937 39.7443 184.361 38.4806C184.297 38.4256 184.197 38.3707 184.05 38.3707L184.059 38.3798Z" fill="black"/>
<path d="M196.66 90.4046C196.303 91.2196 195.9 92.0713 195.506 92.9504C192.732 98.9579 189.361 105.954 188.83 109.663C182.457 116.916 183.143 131.733 182.676 139.92C182.31 146.633 181.889 153.968 181.706 154.572C181.697 154.591 174.691 155.232 174.691 155.232C173.088 146.386 169.498 118.07 169.498 111.925C169.498 105.78 175.158 80.8074 179.535 72.712C183.702 65.0195 197.521 80.3128 199.105 82.355C199.719 83.1426 198.473 86.3569 196.669 90.4046H196.66Z" fill="black"/>
<path d="M196.495 90.2672C196.321 90.1299 196.138 90.1299 195.964 90.194C194.6 88.1152 191.514 85.9814 189.636 88.7654C188.583 90.3222 189.554 92.3002 189.554 93.9852C189.554 97.3827 187.228 100.286 185.735 103.17C180.387 113.445 183.491 125.323 181.532 136.285C180.515 142.026 176.962 149.105 177.063 155.03C179.975 155.287 181.11 154.939 181.715 154.591C183.565 146.596 184.975 122.502 188.84 109.682C189.92 106.092 192.741 98.9762 195.515 92.9687C195.918 92.0896 196.312 91.2379 196.669 90.4229C196.614 90.3771 196.55 90.3405 196.504 90.2947L196.495 90.2672Z" fill="black"/>
<path d="M183.675 53.316C183.675 53.316 183.821 54.7629 183.519 56.8325C183.171 59.2318 182.228 62.4737 179.783 65.221C177.283 68.0324 168.757 54.3416 171.202 50.9075C174.929 45.6693 179.911 38.9751 183.556 37.2809C187.246 35.5776 183.665 53.316 183.665 53.316H183.675Z" fill="#AAB6C2"/>
<path d="M184.032 43.6546C184.032 43.6546 182.136 44.9825 181.028 48.6089C180.03 51.8965 179.425 53.8563 179.709 60.4223C179.847 63.5817 180.662 64.0671 180.689 64.0671L182.869 60.8253C182.869 60.8253 185.213 57.2263 184.847 56.3655C184.49 55.5138 184.023 43.6546 184.023 43.6546H184.032Z" fill="black"/>
<path d="M209.463 153.794C207.64 155.717 202.823 156.541 202.823 156.541C198.94 147.063 195.406 127.795 195.177 117.246C194.819 100.854 192.64 84.791 192.933 80.5052C192.988 79.8183 193.006 79.452 193.006 79.452C197.42 74.9739 202.677 72.6662 205.708 72.5929C206.908 72.5563 207.75 72.8677 208.071 73.527C209.096 75.6699 209.884 77.6388 210.461 79.4795C210.525 79.6627 210.571 79.8458 210.626 80.029C214.206 91.5951 212.732 97.6483 211.477 112.365C210.873 119.306 207.1 149.81 209.472 153.794H209.463Z" fill="black"/>
<path d="M208.822 137.796C209.16 130.121 210.873 119.306 211.468 112.365C212.723 97.6483 214.188 91.5859 210.616 80.0289C209.417 79.8733 208.089 80.0564 206.66 80.6608C206.257 80.8257 206.303 81.2561 206.56 81.5033C206.486 81.6041 206.459 81.7506 206.523 81.9246C208.547 88.0877 209.609 94.5988 208.712 101.082C208.263 104.398 207.201 107.575 206.404 110.826C205.589 114.16 205.03 117.53 204.582 120.918C203.821 126.696 202.814 132.695 203.373 138.537C203.95 144.572 203.858 150.076 204.985 156.038C205.049 156.413 208.959 154.692 209.463 153.794C209.142 152.997 208.254 150.534 208.822 137.796V137.796Z" fill="black"/>
<path d="M177.539 75.4318C177.704 75.9538 179.581 76.897 182.338 77.886C185.415 78.9758 189.59 80.1113 193.785 80.7524C199.453 81.6315 205.149 81.6041 208.199 81.0271C209.444 80.7982 210.241 80.4593 210.433 80.0564C211.019 78.7926 211.77 71.1826 212.008 62.9773C212.054 61.3839 212.091 59.7721 212.091 58.197C212.137 49.9551 211.56 42.226 209.692 40.7974C209.27 40.4678 208.776 40.1198 208.235 39.7535C207.42 39.1948 206.477 38.6179 205.415 38.0593C203.748 37.1801 201.788 36.3743 199.6 35.8157C196.23 34.9365 192.31 34.6526 187.997 35.6417C187.997 35.6417 187.997 35.6508 187.988 35.6508C186.944 35.8798 185.872 36.2003 184.783 36.6032C184.526 36.6948 184.27 36.7955 184.004 36.8871C180.359 38.3523 180.881 46.292 181.468 52.9497C181.733 56.0358 182.008 58.8472 181.898 60.6055C181.852 61.1916 181.788 61.7868 181.678 62.3638C180.854 67.2631 178.143 71.8511 177.53 75.4226L177.539 75.4318Z" fill="#AAB6C2"/>
<path d="M191.193 31.5665V35.1288C191.193 35.1288 190.351 36.6765 191.193 36.8413C193.043 37.2168 195.717 35.1288 195.717 35.1288V29.6892L191.193 31.5665Z" fill="white"/>
<path d="M191.66 37.1252C191.486 37.1252 191.312 37.1069 191.147 37.0794C190.918 37.0336 190.753 36.9054 190.662 36.7131C190.424 36.2003 190.836 35.3212 190.964 35.0831V31.42L195.946 29.3595V35.2571L195.854 35.3303C195.754 35.4127 193.519 37.1344 191.66 37.1344V37.1252ZM191.422 31.7313L191.395 35.2571C191.193 35.6325 190.964 36.2736 191.083 36.53C191.101 36.5758 191.138 36.6216 191.239 36.6399C192.796 36.9512 195.021 35.3853 195.488 35.0373V30.0555L191.422 31.7405V31.7313Z" fill="black"/>
<path d="M187.731 24.4052C187.731 24.4052 187.548 28.169 188.418 31.2276C189.041 33.398 193.968 34.4694 195.772 30.2569C197.576 26.0444 194.81 21.9967 194.81 21.9967L187.731 24.4143V24.4052Z" fill="white"/>
<path d="M191.706 33.3614C191.605 33.3614 191.504 33.3614 191.404 33.3522C189.838 33.2515 188.528 32.409 188.208 31.2918C187.338 28.2331 187.512 24.4327 187.512 24.396V24.2403L194.911 21.7128L195.012 21.8593C195.012 21.8593 197.832 26.0627 196.001 30.3394C195.186 32.2533 193.601 33.3614 191.724 33.3614H191.706ZM187.96 24.57C187.942 25.3026 187.896 28.5261 188.647 31.1635C188.913 32.0793 190.085 32.8119 191.431 32.8943C193.235 33.0042 194.783 31.9877 195.57 30.1654C197.118 26.5481 195.177 23.0132 194.719 22.2623L187.96 24.57Z" fill="black"/>
<path d="M207.961 70.2577C208.409 73.6552 207.091 77.6571 208.19 81.0363C209.435 80.8073 210.232 80.4685 210.424 80.0655C211.01 78.8018 211.761 71.1918 211.999 62.9865C212.045 61.393 212.082 59.7813 212.082 58.2062C211.459 56.7867 210.681 55.4039 209.737 53.9478C207.118 49.9002 207.713 49.8177 205.607 45.477C205.442 45.1473 206.486 40.6875 206.715 40.6051C206.45 40.5044 204.224 40.248 203.208 42.2169C200.131 48.1694 200.461 53.609 202.869 58.2336C204.92 62.1898 207.338 65.5048 207.961 70.2485V70.2577Z" fill="black"/>
<path d="M184.7 24.3411C185.808 26.951 188.775 25.9254 190.634 24.973C190.79 24.8905 190.808 24.6524 190.937 24.5792C191.184 24.451 191.358 24.5517 191.651 24.4785C192.31 24.3136 192.759 24.1854 193.382 23.9015C193.656 23.7733 193.949 23.7184 194.261 23.6726C194.252 24.0847 194.417 24.57 194.49 24.918C194.71 25.9803 194.618 27.4181 195.36 28.2881C195.854 28.8741 196.697 29.0023 197.301 28.4987C198.034 27.8851 197.603 27.1433 197.613 26.3741C197.613 25.9162 197.631 25.5865 197.329 25.2019C197.237 25.092 197.109 25.0096 197.008 24.918C197.017 24.8906 196.99 24.7623 196.981 24.6067C196.953 23.9381 196.605 23.3429 196.092 22.94C196.642 22.2531 196.532 21.3191 195.918 20.6872C195.158 19.9179 194.151 19.9912 193.235 20.3392C192.145 19.6066 190.927 20.156 190.158 21.081C189.517 20.7971 188.885 20.8154 188.345 21.0901C186.303 19.5608 183.665 21.8594 184.709 24.3228L184.7 24.3411Z" fill="black"/>
<path d="M222.695 77.6754C217.97 84.3056 196.88 75.734 196.88 75.734L197.622 72.135C197.622 72.135 209.637 73.4354 212.091 69.3419C212.54 68.6002 211.239 62.0799 208.95 59.8729C207.924 58.893 206.853 57.9315 205.919 57.1164C203.647 55.1384 202.017 52.4918 201.505 49.5247C201.001 46.6767 201.413 44.2774 202.109 42.4C203.061 39.7901 206.367 38.9567 208.519 40.7059C212.668 44.085 219.344 52.7482 219.509 52.9588C225.434 60.7062 227.439 71.0269 222.705 77.6754H222.695Z" fill="white"/>
<path d="M215.699 80.4319C207.952 80.4319 197.402 76.1919 196.788 75.9446L196.614 75.8714L197.439 71.8786L197.649 71.8969C197.768 71.9061 209.545 73.1332 211.889 69.2137C212.247 68.6185 211.074 62.2356 208.785 60.0286C207.887 59.1677 206.871 58.2428 205.763 57.2813C203.364 55.1933 201.77 52.446 201.276 49.5613C200.836 47.0613 201.038 44.6254 201.889 42.3176C202.356 41.0264 203.4 40.074 204.746 39.7077C206.111 39.3322 207.576 39.6436 208.666 40.5319C212.503 43.6638 218.492 51.283 219.655 52.7757L219.692 52.8215C226.093 61.1916 227.412 71.4665 222.897 77.8128C221.523 79.7359 218.849 80.4319 215.717 80.4319H215.699ZM197.136 75.5875C199.179 76.3933 218.162 83.6279 222.503 77.5472C226.908 71.3658 225.598 61.3198 219.316 53.1054L219.28 53.0596C218.126 51.5669 212.155 43.9843 208.355 40.889C207.375 40.0923 206.065 39.8176 204.847 40.1564C203.647 40.4861 202.723 41.3286 202.301 42.4825C201.486 44.7078 201.285 47.0613 201.715 49.4881C202.191 52.272 203.739 54.9277 206.056 56.9424C207.173 57.9131 208.199 58.8472 209.096 59.7081C211.477 61.9883 212.796 68.591 212.274 69.461C209.93 73.3805 199.453 72.5471 197.796 72.3914L197.136 75.6058V75.5875Z" fill="black"/>
<path d="M208.931 61.6861C207.988 60.7887 202.036 55.4131 200.918 49.6621C200.158 45.7334 201.541 40.2022 204.82 39.4421C210.067 38.2241 217.073 45.8433 221.917 51.5943C219.701 56.6036 214.829 60.1018 208.931 61.6861V61.6861Z" fill="#AAB6C2"/>
<path d="M187.026 69.9646C187.933 69.7815 188.894 69.8273 189.847 70.0104C189.966 69.9921 190.076 70.0104 190.195 70.0013C190.149 69.8914 190.085 69.7815 190.048 69.6624C189.819 68.939 189.911 67.7759 190.808 67.5378C191.752 67.2814 192.173 68.4994 192.567 69.1038C193.025 69.8181 193.565 70.5232 194.261 71.0086C194.984 71.4207 195.799 71.5764 196.596 71.8145C197.164 71.9885 198.107 72.135 198.391 72.7486C198.62 73.2339 198.501 74.1863 198.318 74.6808C198.08 75.3036 197.475 75.5417 196.88 75.7248C196.495 75.8439 195.909 75.9629 195.314 75.9812C194.352 76.1369 193.363 76.1918 192.457 75.7981C192.255 75.7156 192.081 75.6058 191.907 75.4959C191.028 75.734 190.122 75.7431 189.224 75.4959C188.794 75.3768 188.711 74.9372 188.876 74.6167C188.693 74.5343 188.537 74.4336 188.418 74.2779C188.272 74.0947 188.244 73.8841 188.263 73.6826C188.089 73.5544 187.942 73.4171 187.841 73.2797C187.402 72.6936 187.411 72.0343 187.658 71.5489C186.742 71.8511 185.918 72.428 185.158 73.0782C184.773 73.4079 184.261 73.1973 184.123 72.7394C183.656 71.2742 185.937 70.1844 187.063 69.9555L187.026 69.9646Z" fill="white"/>
<path d="M194.041 76.3292C193.492 76.3292 192.915 76.2468 192.356 76.0179C192.173 75.9446 192.008 75.8439 191.852 75.7523C190.946 75.9812 190.039 75.9721 189.142 75.7157C188.894 75.6424 188.711 75.4867 188.62 75.2761C188.546 75.1113 188.537 74.9189 188.574 74.7358C188.427 74.6534 188.308 74.5435 188.217 74.4244C188.079 74.2504 188.015 74.0398 188.006 73.7925C187.86 73.6735 187.731 73.5453 187.631 73.4171C187.292 72.9684 187.164 72.4372 187.255 71.9427C186.633 72.2174 185.991 72.6478 185.277 73.2614C185.048 73.4537 184.764 73.5178 184.49 73.4446C184.197 73.3621 183.968 73.124 183.876 72.8218C183.739 72.3914 183.794 71.961 184.041 71.5489C184.627 70.5507 186.156 69.9097 186.99 69.7449C187.841 69.5709 188.803 69.58 189.856 69.7815C189.856 69.7632 189.847 69.754 189.838 69.7357C189.691 69.2778 189.636 68.536 189.948 67.9591C190.122 67.6386 190.405 67.4096 190.744 67.3181C191.688 67.0617 192.182 67.9591 192.539 68.6093C192.612 68.7467 192.686 68.8749 192.75 68.9756C193.098 69.5251 193.656 70.3126 194.38 70.8163C194.884 71.1002 195.451 71.2559 196.056 71.4207C196.248 71.4757 196.45 71.5306 196.642 71.5855C196.733 71.613 196.834 71.6405 196.935 71.668C197.512 71.8236 198.29 72.0343 198.574 72.6387C198.84 73.2065 198.702 74.2321 198.51 74.7541C198.235 75.4776 197.548 75.7431 196.926 75.9446C196.45 76.0911 195.836 76.1919 195.296 76.2102C194.92 76.2743 194.49 76.3292 194.023 76.3292H194.041ZM191.926 75.2486L192.008 75.3036C192.164 75.4043 192.338 75.5142 192.53 75.5874C193.455 75.9812 194.471 75.8805 195.268 75.7523C195.891 75.7248 196.468 75.6058 196.807 75.505C197.374 75.331 197.896 75.1204 198.098 74.5984C198.29 74.0948 198.363 73.2339 198.18 72.8401C197.988 72.428 197.347 72.2541 196.834 72.1167C196.724 72.0892 196.614 72.0617 196.523 72.0343C196.33 71.9793 196.138 71.9244 195.946 71.8694C195.341 71.7046 194.719 71.5306 194.142 71.2101C193.327 70.6423 192.741 69.809 192.374 69.232C192.301 69.113 192.228 68.9848 192.145 68.8382C191.742 68.1148 191.422 67.6203 190.863 67.7668C190.634 67.8309 190.46 67.9683 190.341 68.1789C190.112 68.6001 190.14 69.1954 190.259 69.5983C190.277 69.6624 190.314 69.7265 190.341 69.7906L190.534 70.2119L190.204 70.2302C190.149 70.2302 190.103 70.2302 190.048 70.2302C189.993 70.2302 189.938 70.2302 189.874 70.2302H189.792C188.785 70.0379 187.869 70.0196 187.063 70.1844C186.257 70.3493 184.902 70.9537 184.416 71.7779C184.242 72.0801 184.197 72.3731 184.297 72.6753C184.352 72.8401 184.462 72.9592 184.609 72.9958C184.691 73.0233 184.828 73.0233 184.975 72.9042C185.909 72.1075 186.733 71.6039 187.557 71.3291L188.098 71.146L187.841 71.6497C187.594 72.1167 187.658 72.6753 188.006 73.1424C188.098 73.2614 188.226 73.3804 188.382 73.4995L188.482 73.5728V73.701C188.455 73.8841 188.492 74.0306 188.583 74.1405C188.666 74.2504 188.785 74.3329 188.949 74.4061L189.169 74.5068L189.059 74.7266C188.995 74.8457 188.995 74.983 189.041 75.0929C189.078 75.1845 189.16 75.2486 189.27 75.2761C190.112 75.5142 190.982 75.5233 191.834 75.2761L191.935 75.2486H191.926Z" fill="black"/>
<path d="M199.261 72.5013L196.88 72.1167L194.81 74.4061L196.752 75.5325L197.86 75.8531L200.158 75.2761L199.261 72.5013Z" fill="white"/>
<path d="M181.01 76.8329L194.929 77.6755L181.605 81.4118L181.01 76.8329Z" fill="white"/>
<path d="M181.413 81.7048L180.744 76.5857L196.303 77.5289L181.413 81.7048V81.7048ZM181.275 77.0802L181.806 81.1187L193.574 77.822L181.284 77.0802H181.275Z" fill="black"/>
<path d="M194.929 77.6754L195.003 78.9941L181.605 83.0968V81.4118L194.929 77.6754Z" fill="white"/>
<path d="M181.367 83.399V81.2378L195.14 77.3732L195.241 79.159L181.367 83.399ZM181.825 81.5858V82.7854L194.755 78.8293L194.71 77.9685L181.825 81.5858Z" fill="black"/>
<path d="M152.786 79.6718L181.605 81.4118V83.0968L152.795 81.1737L152.786 79.6718Z" fill="black"/>
<path d="M152.786 79.6718L181.605 81.4118L179.389 65.7613C179.316 65.221 178.876 64.8089 178.326 64.7723L151.824 63.1697C151.11 63.1239 150.533 63.7466 150.625 64.4518L152.786 79.6718V79.6718Z" fill="white"/>
<path d="M181.871 81.659L181.596 81.6407L152.593 79.8824L152.566 79.6993L150.405 64.4792C150.35 64.0671 150.478 63.6642 150.762 63.3711C151.037 63.0689 151.44 62.9041 151.842 62.9407L178.345 64.5433C178.995 64.5799 179.535 65.0836 179.618 65.7338L181.88 81.659H181.871ZM152.987 79.452L181.339 81.1645L179.16 65.7888C179.105 65.3583 178.748 65.0195 178.308 64.992L151.806 63.3894C151.522 63.3711 151.275 63.481 151.082 63.6825C150.899 63.884 150.808 64.1495 150.844 64.4243L152.978 79.452H152.987Z" fill="black"/>
<path d="M161.22 82.0437C161.174 82.0162 161.147 81.9612 161.138 81.9155C160.964 82.0986 160.744 82.2818 160.496 82.2818C160.167 82.2818 159.984 82.0162 159.846 81.8056C159.846 81.7964 159.846 81.7873 159.837 81.7781C159.507 82.2268 159.068 82.6023 158.537 82.4924C158.033 82.3917 157.932 81.9887 157.969 81.5308C157.841 81.6865 157.694 81.833 157.539 81.9429C156.925 82.4008 156.311 81.8697 156.11 81.3568C156.073 81.2744 156.11 81.2012 156.147 81.1554C156.147 81.1371 156.147 81.1187 156.147 81.1004C156.293 80.6151 156.485 80.148 156.751 79.6993C156.934 79.3879 157.172 78.9209 157.529 78.7286C158.17 78.3806 158.454 79.0857 158.564 79.5619C158.738 79.0766 159.05 78.6645 159.7 78.9117C160.149 79.0766 160.368 79.3879 160.451 79.7542C160.588 79.5345 160.753 79.3422 160.973 79.2139C161.522 78.8751 161.916 79.4704 162.008 79.8641C162.053 80.0565 162.053 80.2488 162.026 80.4319C162.062 80.4136 162.108 80.3953 162.154 80.377C162.557 80.3037 162.813 80.7708 162.868 81.0455C163.024 81.8514 162.053 82.5015 161.229 82.0437H161.22Z" fill="white"/>
<path d="M158.711 82.7396C158.637 82.7396 158.564 82.7396 158.482 82.7213C158.189 82.6664 157.868 82.4924 157.758 82.0619C157.722 82.0894 157.694 82.1169 157.658 82.1352C157.383 82.3458 157.072 82.4099 156.769 82.3184C156.311 82.1902 156 81.7689 155.881 81.4484C155.835 81.3202 155.844 81.1828 155.918 81.0729V81.0546C156.082 80.5143 156.284 80.0381 156.55 79.5985L156.623 79.4795C156.815 79.1498 157.053 78.7469 157.42 78.5454C157.74 78.3714 157.987 78.4172 158.134 78.4813C158.354 78.582 158.5 78.7743 158.61 79.0033C158.711 78.8659 158.839 78.7743 158.976 78.7102C159.214 78.6003 159.48 78.6095 159.782 78.7194C160.112 78.8384 160.359 79.0399 160.515 79.3055C160.616 79.1956 160.735 79.104 160.854 79.0308C161.156 78.8476 161.412 78.8842 161.577 78.9575C161.925 79.104 162.154 79.4978 162.236 79.8275C162.264 79.9374 162.273 80.0473 162.282 80.1663C162.484 80.1755 162.676 80.2762 162.823 80.4593C162.978 80.6425 163.07 80.8806 163.097 81.0271C163.18 81.4667 162.997 81.9063 162.612 82.1902C162.182 82.5015 161.614 82.5381 161.128 82.2726C160.964 82.4099 160.753 82.529 160.506 82.5381H160.496C160.185 82.5381 159.975 82.3641 159.828 82.181C159.48 82.5656 159.105 82.7579 158.72 82.7579L158.711 82.7396ZM158.262 80.8257L158.198 81.5491C158.143 82.0986 158.363 82.2176 158.583 82.2634C159.031 82.355 159.416 81.9704 159.654 81.6407L159.883 81.3202L160.048 81.6773C160.194 81.8971 160.313 82.0528 160.496 82.0528C160.68 82.0528 160.863 81.8788 160.982 81.7506L161.293 81.4209L161.376 81.8513C161.76 82.0436 162.127 81.9429 162.346 81.7872C162.584 81.6132 162.703 81.3476 162.649 81.0821C162.63 80.9813 162.566 80.8348 162.475 80.7249C162.346 80.5692 162.236 80.5876 162.2 80.5967C162.182 80.5967 162.163 80.6059 162.136 80.6242L161.724 80.8623L161.797 80.3952C161.824 80.2212 161.824 80.0656 161.788 79.919C161.733 79.7084 161.586 79.4428 161.403 79.3604C161.339 79.333 161.247 79.3146 161.092 79.4062C160.927 79.507 160.78 79.6535 160.652 79.8733L160.35 80.3495L160.231 79.8C160.158 79.4703 159.965 79.2505 159.627 79.1315C159.443 79.0582 159.288 79.0491 159.169 79.1132C159.013 79.1864 158.894 79.3604 158.784 79.6535L158.518 80.3861L158.344 79.626C158.262 79.2414 158.115 78.9666 157.951 78.8934C157.923 78.8751 157.832 78.8384 157.648 78.9392C157.392 79.0765 157.191 79.4245 157.026 79.7084L156.952 79.8275C156.705 80.2396 156.513 80.6791 156.376 81.1737V81.2652L156.311 81.3202C156.412 81.5125 156.632 81.7964 156.907 81.8788C157.081 81.9246 157.236 81.8879 157.392 81.7689C157.529 81.6682 157.658 81.54 157.786 81.3934L158.253 80.8348L158.262 80.8257Z" fill="black"/>
<path d="M132.895 145.341L131.65 144.755L154.929 94.5805L145.057 67.7393L146.348 67.2631L156.421 94.6354L132.895 145.341Z" fill="black"/>
<path d="M146.76 69.6533L137.639 81.9703V55.3398L146.76 67.6569C147.2 68.2521 147.2 69.058 146.76 69.6441V69.6533Z" fill="black"/>
<path d="M153.106 94.782C153.106 96.2015 154.251 97.3462 155.67 97.3462C157.09 97.3462 158.235 96.2015 158.235 94.782C158.235 93.3626 157.09 92.2179 155.67 92.2179C154.251 92.2179 153.106 93.3626 153.106 94.782Z" fill="white"/>
<path d="M155.67 97.5018C154.169 97.5018 152.951 96.2838 152.951 94.7819C152.951 93.2801 154.169 92.0621 155.67 92.0621C157.172 92.0621 158.39 93.2801 158.39 94.7819C158.39 96.2838 157.163 97.5018 155.67 97.5018ZM155.67 92.3734C154.342 92.3734 153.262 93.4541 153.262 94.7819C153.262 96.1098 154.342 97.1904 155.67 97.1904C156.998 97.1904 158.079 96.1098 158.079 94.7819C158.079 93.4541 156.998 92.3734 155.67 92.3734Z" fill="black"/>
<path d="M135.533 68.2613C135.533 75.6699 136.265 81.6773 137.163 81.6773C138.06 81.6773 138.793 75.6699 138.793 68.2613C138.793 60.8527 138.06 54.8453 137.163 54.8453C136.265 54.8453 135.533 60.8527 135.533 68.2613V68.2613Z" fill="black"/>
</svg>
