<svg width="280" height="184" viewBox="0 0 280 184" fill="none" xmlns="http://www.w3.org/2000/svg">
<path d="M140.481 95.796C140.481 95.796 141.029 95.3408 141.924 94.4997L141.531 94.0753C140.651 94.9009 140.119 95.3485 140.111 95.3562L140.481 95.8037V95.796Z" fill="black"/>
<path d="M144.818 91.6061C145.744 90.6262 146.662 89.5999 147.557 88.566L147.117 88.1879C146.237 89.2218 145.319 90.2404 144.401 91.2126L144.818 91.6139V91.6061ZM150.134 85.3869C150.967 84.2989 151.778 83.1878 152.542 82.0844L152.063 81.7526C151.307 82.856 150.497 83.9594 149.671 85.032L150.126 85.3869H150.134ZM154.772 78.6507C155.489 77.4778 156.168 76.2741 156.793 75.0935L156.284 74.8235C155.659 75.9963 154.988 77.1846 154.278 78.3497L154.772 78.6507ZM158.591 71.4129C159.154 70.1552 159.679 68.882 160.134 67.6243L159.594 67.4236C159.139 68.6659 158.622 69.9314 158.066 71.1737L158.591 71.4129ZM161.4 63.7276C161.77 62.4004 162.094 61.0578 162.349 59.746L161.778 59.638C161.523 60.942 161.207 62.2692 160.836 63.5733L161.392 63.7276H161.4ZM162.958 55.6873C163.105 54.3216 163.182 52.9481 163.198 51.5977H162.619C162.604 52.9249 162.519 54.283 162.38 55.6256L162.958 55.6873Z" fill="black"/>
<path d="M162.488 47.539L163.066 47.4927C163.012 46.8523 162.951 46.2118 162.866 45.5637L162.295 45.6331C162.372 46.2736 162.441 46.9063 162.495 47.539H162.488Z" fill="black"/>
<path d="M136.993 94.9009L137.487 94.6077C137.456 94.5537 136.716 93.3191 135.242 91.4055L134.787 91.7605C136.237 93.6432 136.986 94.8932 136.993 94.9087V94.9009ZM132.341 88.7897L132.773 88.4039C131.916 87.4394 131.021 86.4903 130.103 85.5875L129.694 85.9965C130.605 86.8915 131.492 87.8329 132.341 88.782V88.7897ZM126.878 83.3961L127.256 82.9563C126.276 82.1075 125.257 81.2896 124.231 80.5257L123.884 80.9887C124.895 81.7448 125.905 82.555 126.878 83.3884V83.3961ZM120.728 78.8127L121.036 78.3266C119.941 77.6321 118.814 76.9685 117.688 76.3667L117.418 76.8759C118.529 77.4701 119.648 78.1182 120.728 78.8127ZM113.961 75.2092L114.192 74.6768C113.012 74.1598 111.792 73.6969 110.573 73.2802L110.388 73.828C111.592 74.237 112.796 74.7 113.961 75.2092ZM83.4586 73.0719L83.9293 72.9561L83.7981 72.3928L83.3197 72.5086L83.4586 73.0719ZM106.707 72.7632L106.846 72.1999C105.596 71.8913 104.315 71.6366 103.042 71.4437L102.95 72.0147C104.207 72.2077 105.473 72.4623 106.707 72.7632ZM87.6871 72.1845C88.9526 71.9684 90.2334 71.8064 91.4912 71.683L91.4372 71.1042C90.164 71.22 88.8754 71.3897 87.5945 71.6058L87.6871 72.1768V72.1845ZM99.1456 71.5826L99.1842 71.0039C97.9033 70.919 96.607 70.8805 95.303 70.8959V71.4746C96.5993 71.4592 97.8802 71.49 99.1379 71.5826H99.1456Z" fill="black"/>
<path d="M139.409 92.0923V91.7065C139.409 91.1277 139.401 89.9086 139.316 88.2033L138.737 88.2342C138.822 89.9317 138.838 91.1432 138.838 91.7142V92.0923H139.416H139.409ZM138.46 84.3915L139.038 84.3375C138.923 83.0566 138.784 81.7603 138.622 80.4871L138.051 80.5643C138.213 81.8297 138.352 83.1184 138.467 84.3992L138.46 84.3915ZM137.48 76.7448L138.051 76.6522C137.835 75.3713 137.595 74.0904 137.333 72.8404L136.77 72.9561C137.024 74.1984 137.264 75.4716 137.48 76.7448ZM135.906 69.2061L136.469 69.0672C136.152 67.8017 135.797 66.5517 135.427 65.3326L134.872 65.5023C135.242 66.706 135.589 67.9561 135.906 69.2138V69.2061ZM133.66 61.8448L134.208 61.6519C133.76 60.4251 133.29 59.2059 132.788 58.0408L132.256 58.2722C132.75 59.4297 133.22 60.6334 133.668 61.8526L133.66 61.8448ZM130.628 54.7845L131.145 54.5222C130.55 53.3493 129.925 52.2073 129.277 51.1271L128.783 51.428C129.424 52.5005 130.049 53.6271 130.635 54.7845H130.628ZM126.685 48.2181L127.155 47.8785C126.391 46.8137 125.589 45.7875 124.771 44.8229L124.331 45.201C125.141 46.1501 125.936 47.1609 126.685 48.2181ZM121.7 42.4232L122.101 42.0065C121.16 41.1037 120.172 40.2473 119.161 39.4679L118.806 39.9232C119.802 40.6948 120.774 41.5358 121.7 42.4232ZM115.674 37.7472L115.975 37.2534C114.879 36.5821 113.729 35.9571 112.556 35.4092L112.309 35.9339C113.459 36.474 114.586 37.0836 115.666 37.7472H115.674Z" fill="black"/>
<path d="M197.018 83.2727C194.348 86.2203 188.46 85.9425 186.763 84.5921C185.806 83.8282 185.559 82.9332 185.382 81.822C185.212 80.7804 186.254 79.0982 186.4 77.038C186.431 76.5827 185.821 75.842 185.451 75.5719C185.227 75.3867 185.019 75.1784 184.842 74.9469C184.224 74.1059 184.024 73.0024 184.24 72.0071C185.073 68.257 182.735 67.8249 182.38 67.4005C181.385 66.1891 180.922 63.9745 181.74 62.5624C181.755 62.5007 181.778 62.4467 181.825 62.385C181.871 62.331 181.917 62.2692 181.963 62.2152C182.002 62.1689 180.582 61.6134 180.628 61.5671C181.763 60.3093 185.42 59.3834 186.979 60.6488C187.959 61.4436 187.473 62.3695 187.612 63.4189C188.098 67.169 190.189 65.7569 192.056 67.4468C192.774 68.0949 192.982 68.9129 192.928 69.8774C192.89 70.4792 192.504 71.0425 192.473 71.6135C192.326 74.0904 194.34 74.075 195.799 75.4408C197.55 77.0843 198.862 81.2356 197.002 83.2804L197.018 83.2727Z" fill="black"/>
<path d="M205.367 157.526L188.514 151.985V139.979C188.514 138.945 187.681 138.112 186.647 138.112H183.846C182.82 138.112 181.979 138.945 181.979 139.979V151.993L165.127 157.533C163.182 158.174 162.117 160.272 162.758 162.217L183.445 155.411V158.953C183.445 159.555 183.931 160.049 184.541 160.049H186.184C186.786 160.049 187.28 159.563 187.28 158.953V155.488L207.728 162.217C208.368 160.272 207.311 158.174 205.359 157.533L205.367 157.526Z" fill="white"/>
<path d="M162.642 162.456L183.26 155.674V158.953C183.26 159.663 183.838 160.242 184.548 160.242H186.192C186.902 160.242 187.48 159.663 187.48 158.953V155.759L207.859 162.464L207.921 162.279C208.245 161.291 208.168 160.226 207.697 159.3C207.226 158.367 206.424 157.68 205.428 157.348L188.707 151.846V139.979C188.707 138.845 187.781 137.919 186.647 137.919H183.846C182.712 137.919 181.786 138.845 181.786 139.979V151.846L165.065 157.348C163.02 158.019 161.901 160.234 162.573 162.279L162.634 162.464L162.642 162.456ZM186.647 138.305C187.573 138.305 188.322 139.053 188.322 139.979V152.132L205.305 157.718C206.2 158.012 206.925 158.637 207.35 159.478C207.743 160.257 207.836 161.144 207.604 161.978L187.087 155.234V158.968C187.087 159.462 186.686 159.871 186.184 159.871H184.541C184.047 159.871 183.638 159.47 183.638 158.968V155.157L183.383 155.242L162.881 161.985C162.403 160.195 163.398 158.313 165.181 157.726L182.164 152.14V139.987C182.164 139.068 182.912 138.312 183.838 138.312H186.639L186.647 138.305Z" fill="black"/>
<path d="M202.226 160.874C202.226 158.853 203.862 157.217 205.884 157.217C207.905 157.217 209.541 158.853 209.541 160.874C209.541 162.896 207.905 164.532 205.884 164.532C203.862 164.532 202.226 162.896 202.226 160.874Z" fill="black"/>
<path d="M203.021 160.874C203.021 159.293 204.302 158.012 205.884 158.012C207.465 158.012 208.746 159.293 208.746 160.874C208.746 162.456 207.465 163.737 205.884 163.737C204.302 163.737 203.021 162.456 203.021 160.874Z" fill="black"/>
<path d="M181.716 160.874C181.716 158.853 183.352 157.217 185.374 157.217C187.396 157.217 189.031 158.853 189.031 160.874C189.031 162.896 187.396 164.532 185.374 164.532C183.352 164.532 181.716 162.896 181.716 160.874Z" fill="black"/>
<path d="M185.366 163.737C183.785 163.737 182.504 162.455 182.504 160.874C182.504 159.293 183.785 158.012 185.366 158.012C186.947 158.012 188.229 159.293 188.229 160.874C188.229 162.455 186.947 163.737 185.366 163.737Z" fill="black"/>
<path d="M160.59 160.874C160.59 158.853 162.225 157.217 164.247 157.217C166.269 157.217 167.905 158.853 167.905 160.874C167.905 162.896 166.269 164.532 164.247 164.532C162.225 164.532 160.59 162.896 160.59 160.874Z" fill="black"/>
<path d="M161.384 160.874C161.384 159.293 162.665 158.012 164.247 158.012C165.829 158.012 167.11 159.293 167.11 160.874C167.11 162.456 165.829 163.737 164.247 163.737C162.665 163.737 161.384 162.456 161.384 160.874Z" fill="black"/>
<path d="M161.994 133.196C161.994 134.801 163.298 136.105 164.903 136.105H189.147C189.147 136.105 189.811 135.897 190.891 135.558C195.266 134.169 206.439 130.527 207.188 129.354C208.114 127.895 210.32 107.355 210.32 107.355H186.076C184.471 107.231 183.075 108.427 182.943 110.025L182.38 122.88C182.048 127.031 178.53 130.28 174.363 130.28H164.903C163.298 130.28 161.994 131.584 161.994 133.189V133.196Z" fill="#1852FD"/>
<path d="M180.227 139.809H189.78C191.184 139.809 192.319 137.795 192.319 135.311H177.689C177.689 137.795 178.823 139.809 180.227 139.809Z" fill="black"/>
<path d="M161.994 133.196C161.994 134.801 163.298 136.105 164.903 136.105H190.883V130.287H164.903C163.298 130.287 161.994 131.591 161.994 133.196Z" fill="#1852FD"/>
<path d="M189.147 136.105H198.607C205.791 136.105 211.856 130.496 212.427 123.343L212.99 110.495C213.121 108.89 211.925 107.494 210.32 107.363C208.723 107.231 207.319 108.427 207.188 110.032L206.624 122.88C206.293 127.031 202.774 130.287 198.607 130.287H189.147C187.542 130.287 186.238 131.591 186.238 133.196C186.238 134.801 187.542 136.105 189.147 136.105Z" fill="black"/>
<path d="M139.115 152.657L137.171 156.229L135.365 155.62L135.921 151.129L139.115 152.657Z" fill="white"/>
<path d="M137.264 156.468L139.386 152.572L135.767 150.836L135.157 155.751L137.264 156.461V156.468ZM138.853 152.741L137.078 155.998L135.574 155.488L136.083 151.414L138.853 152.741Z" fill="black"/>
<path d="M135.226 155.025C135.226 155.025 127.611 152.448 124.802 155.836L137.233 160.041C137.233 160.041 139.169 157.649 137.364 155.882C137.364 155.882 136.237 156.337 135.226 155.025Z" fill="black"/>
<path d="M157.025 155.527L156.323 159.539L153.946 159.663L153.506 155.103L157.025 155.527Z" fill="white"/>
<path d="M153.768 159.863L156.485 159.725L157.248 155.357L153.29 154.879L153.768 159.856V159.863ZM156.16 159.354L154.123 159.455L153.722 155.319L156.801 155.689L156.16 159.346V159.354Z" fill="black"/>
<path d="M172.033 110.58C172.033 110.58 154.201 113.574 147.912 119.963C140.335 127.664 135.018 151.653 135.018 151.653L139.123 153.675C139.123 153.675 151.13 135.025 155.551 130.527C159.98 126.028 173.067 129.971 179.957 126.483C193.731 119.508 172.04 110.58 172.04 110.58H172.033Z" fill="black"/>
<path d="M143.143 147.394C143.143 147.394 153.39 131.051 157.326 129.022C161.261 126.993 179.857 117.695 179.857 117.695L176.755 113.836C176.755 113.836 156.485 115.773 151.793 122.417C144.957 132.093 143.143 147.386 143.143 147.386V147.394Z" fill="black"/>
<path d="M192.319 110.58C192.319 110.58 165.165 113.991 158.877 120.38C151.299 128.073 153.213 156.229 153.213 156.229L157.326 156.715C157.326 156.715 163.043 136.754 167.472 132.255C171.902 127.756 182.781 132.108 189.988 129.323C201.933 124.716 192.319 110.58 192.319 110.58Z" fill="black"/>
<path d="M158.815 109.94C154.71 110.171 145.427 106.653 143.058 105.997C142.372 105.804 141.353 103.234 141.353 103.234C147.287 103.335 158.938 101.035 159.556 99.9242C159.965 99.1912 163.283 87.1231 168.422 84.4918C170.189 83.589 169.926 84.4147 170.567 86.2974C171.871 90.1092 170.243 98.5121 167.241 103.713C163.699 109.839 165.366 109.562 158.807 109.924L158.815 109.94Z" fill="white"/>
<path d="M158.414 110.148C158.553 110.148 158.691 110.148 158.823 110.14L159.417 110.11C164.139 109.847 164.224 109.847 165.852 106.707C166.246 105.951 166.732 105.009 167.411 103.836C170.489 98.5121 172.079 90.1401 170.752 86.2588C170.628 85.8962 170.536 85.5644 170.459 85.2866C170.273 84.6153 170.15 84.1755 169.78 84.0134C169.471 83.8745 169.062 83.9671 168.329 84.3452C163.946 86.5829 160.921 95.4179 159.787 98.7359C159.594 99.2992 159.44 99.7467 159.386 99.847C158.861 100.788 147.457 103.165 141.353 103.057H141.068L141.176 103.319C141.353 103.767 142.264 105.989 143.004 106.19C143.521 106.336 144.378 106.614 145.458 106.969C149.092 108.173 155.08 110.148 158.406 110.148H158.414ZM169.494 84.3375C169.548 84.3375 169.594 84.3452 169.633 84.3607C169.834 84.4455 169.942 84.8391 170.096 85.3792C170.173 85.6647 170.266 85.9965 170.397 86.3746C171.67 90.0938 170.057 98.4813 167.087 103.636C166.4 104.816 165.914 105.765 165.52 106.522C164.502 108.487 162.462 109.554 159.401 109.724L158.807 109.755C155.644 109.948 149.347 107.849 145.589 106.606C144.501 106.251 143.645 105.966 143.12 105.819C142.742 105.719 142.078 104.446 141.654 103.443H141.731C147.511 103.443 159.039 101.282 159.733 100.032C159.803 99.9088 159.926 99.5615 160.165 98.8594C161.292 95.5723 164.278 86.853 168.522 84.6847C168.977 84.4532 169.293 84.3375 169.494 84.3375Z" fill="black"/>
<path d="M143.058 103.443C142.989 103.018 142.904 102.625 142.673 102.239C142.295 101.614 141.986 101.012 141.785 100.302C141.654 99.847 140.967 99.9011 140.875 100.349C140.736 101.02 140.875 101.66 141.268 102.2C140.859 102.046 140.227 101.907 139.671 101.915C139.108 101.838 138.46 101.9 138.151 102.432C137.989 102.702 137.997 102.918 138.097 103.088C137.881 103.234 137.711 103.427 137.696 103.705C137.68 103.998 137.811 104.153 137.989 104.268C137.889 104.415 137.835 104.585 137.912 104.793C137.989 105.009 138.166 105.171 138.375 105.287C138.344 105.441 138.375 105.603 138.49 105.765C138.699 106.074 139.046 106.19 139.409 106.236C139.902 106.398 140.543 106.329 140.967 106.251C146.616 106.043 145.983 103.597 143.066 103.427L143.058 103.443Z" fill="white"/>
<path d="M142.873 103.142C142.873 103.142 142.827 103.404 143.83 103.404C144.825 103.404 146.237 104.562 146.222 104.577C146.207 104.6 145.566 105.634 145.566 105.634C145.566 105.634 145.288 105.804 145.049 105.873C144.81 105.943 144.501 106.035 144.501 106.035L143.645 106.066L143.19 105.819L143.035 105.711L142.001 103.721L142.156 103.504L142.503 103.088L142.866 103.15L142.873 103.142Z" fill="white"/>
<path d="M173.437 97.0924C171.323 97.4087 169.324 97.3856 167.418 96.9072C167.033 96.8223 166.654 96.7065 166.284 96.5754C164.602 95.9812 162.982 95.0013 161.407 93.5429C161.624 92.5012 163.229 85.5567 166.84 82.393C167.611 81.7217 168.877 80.7186 170.212 80.0396C171.508 79.3683 172.889 79.0056 173.908 79.5766C174.077 79.6692 174.232 79.7772 174.386 79.9316C177.527 83.0412 175.32 91.2358 173.445 97.1001L173.437 97.0924Z" fill="#AAB6C2"/>
<path d="M170.528 97.509C168.684 97.2389 167.418 96.9072 166.284 96.5676C171.222 93.0876 166.485 88.2805 168.128 86.1199C168.823 85.2017 169.193 80.7803 170.219 80.0319C171.516 79.3606 172.897 78.9979 173.915 79.5689C173.013 80.2865 171.323 81.8529 170.497 82.447C169.023 84.4532 170.32 87.5397 170.351 89.9935C170.428 90.4873 170.814 97.3856 170.543 97.5167L170.528 97.509Z" fill="black"/>
<path d="M162.11 112.656C177.326 119.292 194.155 110.943 194.224 110.912C193.939 110.364 190.544 104.623 189.61 102.532C189.155 101.514 188.893 100.279 188.769 99.0214C188.545 97.0152 188.646 94.9627 188.792 93.62C188.854 92.9642 188.923 92.4703 188.954 92.2388C188.962 92.208 188.977 92.1771 188.977 92.1617C190.204 86.0736 192.859 78.8513 185.791 76.6213C184.919 76.3358 183.885 76.1429 182.696 76.0349H182.689C181.408 75.9114 179.919 75.9037 178.206 76.004C178.206 76.004 176.061 76.7525 173.591 77.9948C172.75 78.4192 171.863 78.9053 171.014 79.4377C168.468 81.035 167.912 84.2449 167.997 86.4286C168.059 87.9487 169.864 91.174 170.366 91.8299C169.278 99.0214 163.283 110.572 162.11 112.656Z" fill="#AAB6C2"/>
<path d="M176.523 73.8204V76.6754C176.523 76.6754 175.76 78.0797 176.523 78.234C178.213 78.5736 180.644 75.9423 180.644 75.9423V72.1151L176.523 73.8204Z" fill="white"/>
<path d="M176.832 78.4501C178.561 78.4501 180.69 76.1661 180.783 76.0658L180.837 76.0118V71.8219L176.331 73.6892V76.6213C176.223 76.8374 175.837 77.6322 176.061 78.0951C176.138 78.2649 176.284 78.3806 176.485 78.4192C176.601 78.4424 176.716 78.4501 176.832 78.4501ZM180.451 75.8574C180.096 76.2278 177.99 78.3266 176.562 78.0411C176.462 78.018 176.423 77.9717 176.408 77.9331C176.284 77.6707 176.547 77.0303 176.693 76.7602L176.716 76.6676V73.9438L180.451 72.4006V75.8652V75.8574Z" fill="black"/>
<path d="M196.215 90.5027C196.215 90.5027 196.184 90.441 196.177 90.4101C193.26 84.4841 186.462 91.3206 187.087 92.3006C187.311 92.6555 187.426 94.6 187.635 95.1247C188.738 97.8717 189.024 103.736 188.754 104.909C188.646 105.387 177.55 104.523 175.49 104.415C174.919 104.284 174.294 104.299 173.73 104.338C173.506 104.33 173.298 104.338 173.082 104.384C171.493 104.492 169.965 104.4 168.599 105.379C168.367 105.542 168.352 105.812 168.452 106.012C168.383 106.043 168.306 106.074 168.236 106.105C167.696 106.398 168.175 107.216 168.715 106.93C168.815 106.876 168.931 106.838 169.031 106.792C168.792 107.17 169.209 107.756 169.664 107.463C169.895 107.316 170.142 107.208 170.397 107.123C170.289 107.455 170.528 107.887 170.945 107.741C171.755 107.463 172.565 107.355 173.383 107.432C174.255 107.918 175.374 108.211 176.192 107.81C176.199 107.833 176.207 107.856 176.215 107.872C176.215 107.872 184.108 112.37 191.068 112.656C197.866 112.926 198.021 98.8979 196.215 90.495V90.5027Z" fill="white"/>
<path d="M191.261 112.864C192.619 112.864 193.785 112.301 194.718 111.19C197.897 107.417 197.959 97.7019 196.408 90.4719C196.408 90.4178 196.377 90.3793 196.37 90.3561C195.559 88.7126 194.425 87.8715 192.982 87.8329C190.474 87.7712 187.859 90.1169 187.087 91.4595C186.848 91.8762 186.794 92.2003 186.925 92.4009C187.017 92.5552 187.11 93.2265 187.187 93.7667C187.272 94.3608 187.349 94.9241 187.457 95.1942C188.499 97.7868 188.823 103.474 188.584 104.793C187.774 105.032 180.76 104.562 177.727 104.361C176.724 104.292 175.922 104.238 175.505 104.214C174.919 104.075 174.24 104.099 173.723 104.137C173.514 104.122 173.283 104.137 173.051 104.184C172.835 104.199 172.596 104.207 172.357 104.222C170.991 104.292 169.695 104.353 168.491 105.217C168.236 105.395 168.175 105.665 168.221 105.897C168.198 105.904 168.175 105.92 168.151 105.927C167.781 106.128 167.742 106.514 167.897 106.799C168.051 107.085 168.414 107.285 168.784 107.108C168.8 107.262 168.877 107.417 168.992 107.54C169.209 107.756 169.517 107.787 169.78 107.617C169.903 107.54 170.042 107.471 170.196 107.401C170.219 107.548 170.289 107.687 170.389 107.787C170.551 107.949 170.783 107.995 171.014 107.91C171.778 107.648 172.557 107.54 173.337 107.609C174.363 108.173 175.389 108.327 176.145 108.034C176.554 108.265 184.301 112.556 191.068 112.833C191.138 112.833 191.2 112.833 191.269 112.833L191.261 112.864ZM196.022 90.5413C197.558 97.6788 197.519 107.255 194.417 110.935C193.515 112.008 192.38 112.517 191.068 112.471C184.564 112.208 177.133 108.173 176.361 107.748L176.3 107.548L176.099 107.648C175.327 108.026 174.24 107.702 173.476 107.278L173.398 107.255C172.557 107.177 171.709 107.285 170.875 107.571C170.783 107.602 170.705 107.594 170.644 107.532C170.567 107.455 170.536 107.309 170.574 107.193L170.698 106.822L170.327 106.954C170.019 107.062 169.772 107.177 169.556 107.316C169.417 107.409 169.317 107.347 169.255 107.285C169.162 107.193 169.108 107.031 169.193 106.907L169.533 106.375L168.846 106.668C168.769 106.699 168.692 106.73 168.614 106.768C168.414 106.876 168.275 106.738 168.221 106.637C168.19 106.583 168.113 106.398 168.321 106.29C168.367 106.267 168.414 106.244 168.468 106.228L168.707 106.128L168.622 105.943C168.599 105.904 168.514 105.688 168.707 105.549C169.818 104.755 171.053 104.693 172.364 104.631C172.604 104.623 172.851 104.608 173.09 104.592C173.314 104.554 173.514 104.538 173.715 104.546C174.224 104.508 174.865 104.492 175.436 104.616C175.891 104.639 176.686 104.693 177.689 104.762C188.298 105.472 188.854 105.31 188.931 104.963C189.209 103.728 188.908 97.8254 187.797 95.0707C187.704 94.8392 187.627 94.2759 187.55 93.7358C187.434 92.9256 187.357 92.424 187.234 92.2157C187.21 92.1848 187.203 92.0228 187.403 91.6679C188.105 90.4333 190.629 88.1801 192.951 88.2342C194.24 88.2727 195.266 89.0444 195.991 90.5104L196.015 90.5645L196.022 90.5413Z" fill="black"/>
<path d="M173.746 92.7944C175.983 94.492 179.155 94.5151 181.747 95.5028C184.024 96.3825 186.377 98.489 188.777 99.0137C188.553 97.0075 188.653 94.955 188.8 93.6123C188.777 93.5815 188.746 93.5506 188.73 93.5352C188.8 93.1108 188.869 92.671 188.962 92.2312C188.962 92.2003 188.962 92.1771 188.97 92.154C188.538 91.3361 187.843 90.3638 186.732 89.3299C183.8 86.5598 184.548 79.7541 184.548 79.7541C183.877 83.1492 183.707 88.3499 184.842 90.4333C185.359 91.3515 186.207 92.6787 187.118 93.7744C187.118 93.813 187.087 93.8438 187.087 93.8979C187.156 95.009 180.289 92.7327 179.471 92.5244C177.642 92.0305 175.837 91.7759 173.939 91.8839C173.476 91.9148 173.422 92.563 173.746 92.8022V92.7944Z" fill="black"/>
<path d="M186.825 95.9967C186.254 95.0939 182.612 88.9672 182.997 84.2372C183.175 82.0844 183.923 77.2772 186.647 77.3621C191.007 77.501 195.081 84.9394 197.789 90.4642C195.089 93.9364 191.763 95.9812 186.817 95.9967H186.825Z" fill="#AAB6C2"/>
<path d="M188.144 77.8868C188.144 77.8868 187.735 77.6399 187.473 77.4855C187.218 77.3312 185.613 76.6753 185.613 76.6753L183.021 79.7541L182.75 83.0798L183.916 83.8437C183.916 83.8437 183.993 83.5427 184.147 83.7665C184.301 83.9903 184.734 84.0443 184.734 84.0443L186.277 82.2773C186.277 82.2773 187.596 80.2557 187.681 80.109C187.766 79.9624 188.144 77.8945 188.144 77.8945V77.8868Z" fill="#AAB6C2"/>
<path d="M170.983 79.5843C170.983 79.5843 169.872 80.4408 169.479 80.5643C169.085 80.6878 167.241 82.1615 167.326 83.481C167.411 84.8005 167.796 86.9301 167.796 86.9301L167.874 86.5443C167.874 86.5443 167.889 86.1585 168.121 86.4054C168.352 86.6524 168.823 86.3514 168.823 86.3514L169.926 84.5304L172.75 81.8452L174.525 81.2896L174.216 79.2757L170.991 79.5766L170.983 79.5843Z" fill="#AAB6C2"/>
<path d="M177.642 62.655C180.15 62.7553 182.064 65.6875 181.917 69.1983C181.77 72.7092 179.625 75.4716 177.118 75.3636C174.61 75.2633 172.696 72.3311 172.843 68.8202C172.989 65.3094 175.135 62.547 177.642 62.655Z" fill="white"/>
<path d="M177.249 75.5642C179.795 75.5642 181.963 72.7555 182.102 69.2061C182.249 65.5949 180.25 62.5701 177.642 62.4621C176.354 62.4158 175.142 63.0486 174.201 64.2677C173.267 65.4637 172.719 67.0841 172.642 68.8203C172.496 72.4314 174.494 75.4562 177.102 75.5642C177.148 75.5642 177.195 75.5642 177.249 75.5642ZM177.635 62.8479C180.027 62.9482 181.863 65.7955 181.724 69.1906C181.585 72.5857 179.533 75.2864 177.125 75.1707C174.733 75.0704 172.897 72.2231 173.036 68.828C173.105 67.169 173.63 65.6335 174.51 64.4992C175.374 63.3881 176.493 62.7939 177.635 62.8479Z" fill="black"/>
<path d="M173.614 69.916C173.614 69.916 172.889 71.2586 172.704 71.9916C172.673 72.1074 172.75 72.2154 172.866 72.2231C173.213 72.2617 173.915 72.3234 174.201 72.254C174.587 72.1614 173.607 69.9083 173.607 69.9083L173.614 69.916Z" fill="white"/>
<path d="M173.823 72.4854C174 72.4854 174.147 72.4777 174.255 72.4469C174.34 72.4237 174.409 72.3697 174.448 72.2925C174.648 71.8913 174.062 70.4484 173.8 69.8388L173.645 69.4761L173.452 69.8234C173.422 69.8774 172.712 71.1968 172.527 71.9453C172.503 72.0533 172.527 72.1691 172.588 72.254C172.65 72.3466 172.75 72.4006 172.858 72.416C173.159 72.4469 173.522 72.4777 173.823 72.4777V72.4854ZM174.108 72.0842C173.9 72.1151 173.452 72.0996 172.897 72.0379C173.013 71.5672 173.375 70.811 173.599 70.3712C173.892 71.0965 174.131 71.8527 174.108 72.0842Z" fill="black"/>
<path d="M180.806 66.899C180.806 66.899 179.726 67.1227 179.116 65.9499C178.507 64.777 176.909 65.1551 175.852 65.9807C174.795 66.8064 173.699 67.4005 172.256 66.8835C171.153 66.49 169.594 64.6613 171.207 62.9406C172.673 61.3742 173.931 62.8943 174.517 61.9297C175.111 60.9652 176.778 59.8772 177.866 60.78C178.946 61.6751 181.192 60.6411 182.264 60.8726C184.255 61.297 184.911 65.1165 185.073 65.811C185.821 69.0055 184.556 71.8836 182.828 72.146C180.058 72.5703 181.755 68.1876 180.806 66.899Z" fill="black"/>
<path d="M180.459 68.1875C180.459 68.1875 181.2 67.0301 182.048 67.7014C182.897 68.3727 182.264 71.0965 180.914 70.4715C179.564 69.8465 180.459 68.1875 180.459 68.1875Z" fill="white"/>
<path d="M181.3 70.7493C181.67 70.7493 182.017 70.5333 182.264 70.132C182.735 69.3681 182.797 68.0409 182.172 67.5471C181.917 67.3388 181.632 67.2616 181.346 67.3079C180.737 67.4082 180.32 68.0564 180.304 68.0795V68.095C180.304 68.095 179.795 69.0286 180.057 69.8157C180.181 70.186 180.443 70.4638 180.837 70.649C180.991 70.7185 181.153 70.757 181.3 70.757V70.7493ZM181.508 67.6783C181.655 67.6783 181.794 67.7323 181.933 67.848C182.341 68.1721 182.341 69.2601 181.933 69.9314C181.755 70.2169 181.454 70.5101 180.991 70.2941C180.69 70.1552 180.505 69.9623 180.412 69.6922C180.212 69.0981 180.582 68.365 180.621 68.2879C180.659 68.2261 180.991 67.7632 181.4 67.6937C181.431 67.6937 181.462 67.686 181.493 67.686L181.508 67.6783Z" fill="black"/>
<path d="M173.167 69.1521L173.915 69.5302L174.656 71.683V72.3852L174.216 72.4314C174.216 72.4314 174.371 72.2154 174.185 72.146C174 72.0765 173.954 71.791 173.954 71.791L173.167 69.1521Z" fill="white"/>
<path d="M181.03 67.4314L181.138 68.0332L181.207 70.379C181.207 70.379 181.115 70.6799 181.223 71.0425C181.331 71.4052 180.081 71.3435 179.926 71.3512C179.772 71.3589 179.525 71.2277 179.525 71.2277C179.525 71.2277 179.224 69.7771 179.301 69.1598C179.378 68.5425 179.432 68.1953 179.595 68.0564C179.749 67.9252 181.037 67.4391 181.037 67.4391L181.03 67.4314Z" fill="white"/>
<path d="M154.069 159.038C154.069 159.038 146.029 159.038 144.455 163.143H157.58C157.58 163.143 158.653 160.257 156.377 159.161C156.377 159.161 155.451 159.948 154.077 159.038H154.069Z" fill="black"/>
<path d="M197.789 109.839L195.197 114.222H102.433L99.8401 109.839H197.789Z" fill="#AAB6C2"/>
<path d="M195.444 164.702H197.758L193.761 114.222H188.869L195.444 164.702Z" fill="black"/>
<path d="M183.522 164.702H185.837L181.84 114.222H176.948L183.522 164.702Z" fill="#AAB6C2"/>
<path d="M103.119 164.702H100.805L104.794 114.222H109.694L103.119 164.702Z" fill="#AAB6C2"/>
<path d="M114.184 164.702H111.877L115.867 114.222H120.766L114.184 164.702Z" fill="black"/>
<path d="M197.789 109.839L195.197 114.222H175.119L173.63 109.839H197.789Z" fill="black"/>
<path d="M150.265 106.282L166.492 107.741L153.306 107.671L150.265 106.282Z" fill="black"/>
<path d="M166.354 109.515L166.307 107.934L153.498 107.872L153.491 109.793L166.354 109.515Z" fill="white"/>
<path d="M153.691 108.065V109.6L166.161 109.322L166.122 108.119L153.691 108.057V108.065ZM153.306 107.679L166.492 107.741L166.554 109.701L153.29 109.994V107.679H153.298H153.306Z" fill="black"/>
<path d="M124.933 107.447L153.306 107.671L153.298 109.994L124.933 109.585V107.447Z" fill="black"/>
<path d="M153.699 89.5691C153.63 89.0367 153.19 88.6508 152.657 88.6508L126.569 88.4425C126.353 88.4425 126.16 88.5119 125.983 88.62L124.509 89.3839L125.242 90.4487L125.419 90.3793L126.368 106.699L153.306 107.687L154.787 107.424L153.707 89.5845L153.699 89.5691Z" fill="black"/>
<path d="M152.071 90.3407C152.017 89.924 151.654 89.6077 151.214 89.5999L125.126 89.3916C124.841 89.3916 124.57 89.5151 124.378 89.7311C124.192 89.9472 124.1 90.2249 124.138 90.495L125.111 107.255L153.097 107.478L152.071 90.333V90.3407Z" fill="white"/>
<path d="M125.126 89.1987V89.5845C124.902 89.5845 124.686 89.6848 124.532 89.8623C124.378 90.032 124.308 90.2558 124.339 90.5027L125.303 107.062L152.897 107.285L151.886 90.3792C151.839 90.0397 151.562 89.8005 151.222 89.7928L125.134 89.5845V89.1987H125.126ZM125.126 89.1987H125.134L151.222 89.407C151.762 89.407 152.194 89.8005 152.264 90.3252L153.306 107.671L124.933 107.44L123.953 90.5181C123.861 89.8237 124.424 89.1909 125.126 89.1909V89.1987Z" fill="black"/>
<g clip-path="url(#clip0_610_43896)">
<rect x="67" y="58.5809" width="27.7783" height="27.7783" rx="13.8891" fill="white"/>
<g clip-path="url(#clip1_610_43896)">
<path d="M102.202 97.1126C102.594 97.1126 102.946 97.0673 103.263 96.9716C107.028 95.8537 108.381 85.1833 107.486 81.9655L106.093 80.7066C105.927 81.2001 105.425 82.6403 104.751 84.2215C103.444 87.2831 102.257 89.1312 101.222 89.7254C101.061 89.821 100.885 89.8664 100.704 89.8664C99.9247 89.8664 99.0902 88.9751 98.3009 88.0183C97.9238 87.5601 97.5015 86.9558 97.0089 86.2609C95.2744 83.8035 92.9015 80.4448 90.4633 80.4448C89.9957 80.4448 89.5332 80.5707 89.0908 80.8224C87.3463 81.8195 86.723 83.3201 87.2408 85.289C88.6585 90.6569 97.6322 97.1176 102.197 97.1176L102.202 97.1126Z" fill="white"/>
<path d="M90.4633 80.5706C90.0158 80.5706 89.5785 80.6915 89.1562 80.9332C87.467 81.9 86.8637 83.3553 87.3664 85.2537C87.9898 87.6054 90.3024 90.5109 93.5551 93.0337C96.7022 95.471 100.015 96.9867 102.202 96.9867C102.579 96.9867 102.926 96.9414 103.228 96.8507C106.923 95.753 108.245 85.2638 107.375 82.031L106.154 80.9231C105.942 81.5375 105.475 82.8417 104.872 84.2718C103.554 87.3536 102.353 89.2268 101.292 89.8311C101.111 89.9368 100.915 89.9872 100.714 89.9872C99.9297 89.9872 99.1455 89.2319 98.2104 88.0938C97.8333 87.6305 97.406 87.0263 96.9133 86.3314C95.194 83.8992 92.8462 80.5656 90.4733 80.5656L90.4633 80.5706ZM90.4633 80.3189C93.6506 80.3189 96.667 85.8278 98.3964 87.9377C99.246 88.975 100.015 89.7405 100.704 89.7405C100.86 89.7405 101.011 89.7002 101.161 89.6146C102.393 88.9096 103.69 86.3868 104.635 84.1761C105.47 82.2072 106.033 80.485 106.033 80.485L107.596 81.9C108.552 85.2185 107.144 95.9544 103.298 97.0975C102.966 97.1982 102.599 97.2435 102.202 97.2435C95.7721 97.2435 81.6353 84.9415 89.0305 80.7167C89.5081 80.4448 89.9857 80.3189 90.4633 80.3189Z" fill="black"/>
<path d="M101.187 91.2763C104.087 90.6116 104.625 84.3624 104.63 84.1811C103.685 86.3917 102.388 88.9146 101.156 89.6196C100.357 90.0778 99.4371 89.2117 98.3964 87.9427C95.3046 83.1085 92.9116 81.2957 92.9116 81.2957L93.2685 86.4371C93.2685 86.4371 97.763 92.0669 101.187 91.2813V91.2763Z" fill="black"/>
<path d="M84.5662 76.2652C84.5662 76.2652 82.9575 81.9303 87.3866 86.2558L89.9354 90.3498C89.9354 90.3498 95.1387 84.8559 95.2091 81.5627C95.2091 81.5627 91.2978 77.8817 84.5662 76.2703V76.2652Z" fill="#AAB6C2"/>
<path d="M91.5894 85.6465L89.9354 90.3498L84.5612 76.2652C84.5612 76.2652 84.4104 76.6127 86.004 77.2119C89.5785 79.3974 91.8508 80.2383 91.5844 85.6465H91.5894Z" fill="black"/>
<path d="M88.9702 89.0958C88.9702 89.0958 94.1483 83.0179 94.1483 80.0267L95.9933 81.4619C95.9933 81.4619 94.6711 87.6204 90.0259 91.1302L88.9651 89.0958H88.9702Z" fill="black"/>
<path d="M91.7704 99.2778C91.7704 99.2778 84.0535 103.145 68.5592 100.386C68.5592 100.386 67.1968 74.6437 80.6751 75.2178C88.8948 75.5652 89.6338 83.0179 91.7704 99.2829V99.2778Z" fill="#AAB6C2"/>
<path d="M80.9214 76.0336C81.7509 76.0336 82.1632 75.5955 82.2889 75.4243C81.4493 74.2711 81.4795 73.3244 81.5197 72.9921L78.8803 72.3475C79.1971 73.692 78.8502 74.9358 78.7295 75.2933C79.554 75.7818 80.288 76.0336 80.9164 76.0336H80.9214Z" fill="white"/>
<path d="M79.0462 72.5187C79.2775 73.7172 79.0161 74.7999 78.8803 75.238C79.6495 75.6811 80.3332 75.9077 80.9214 75.9077C81.6001 75.9077 81.9772 75.6005 82.133 75.4192C81.404 74.3769 81.3588 73.5007 81.389 73.0878L79.0462 72.5187ZM78.7044 72.1763L81.6655 72.9014C81.6655 72.9014 81.3789 74.0143 82.4447 75.4243C82.4447 75.4243 82.0325 76.1595 80.9214 76.1595C80.3433 76.1595 79.5741 75.958 78.5787 75.3487C78.5787 75.3487 79.1719 73.7927 78.7044 72.1763Z" fill="black"/>
<path d="M80.9114 73.9438C81.0521 73.9438 81.1879 73.9286 81.3236 73.8984C82.0123 73.7474 82.5804 73.2237 82.9223 72.423C83.2692 71.6072 83.3396 70.6102 83.1184 69.6081C82.7212 67.7953 81.4241 66.4256 80.102 66.4256C79.9612 66.4256 79.8255 66.4407 79.6897 66.4709C79.001 66.622 78.4329 67.1507 78.091 67.9464C77.7441 68.7621 77.6738 69.7592 77.895 70.7613C78.2921 72.5741 79.5892 73.9438 80.9114 73.9438Z" fill="white"/>
<path d="M80.0969 66.5515C79.9662 66.5515 79.8405 66.5666 79.7098 66.5918C79.0613 66.7328 78.5234 67.2313 78.2016 67.9967C77.8648 68.7873 77.7994 69.7592 78.0156 70.731C78.4027 72.4884 79.6495 73.8128 80.9114 73.8128C81.0421 73.8128 81.1728 73.7977 81.2985 73.7725C82.6709 73.4704 83.4301 71.6123 82.9927 69.6333C82.6056 67.8758 81.3638 66.5515 80.0969 66.5515ZM80.0969 66.2997C81.4644 66.2997 82.8167 67.6643 83.234 69.5779C83.7015 71.6979 82.8569 73.6869 81.3487 74.0193C81.2029 74.0495 81.0572 74.0696 80.9114 74.0696C79.5439 74.0696 78.1916 72.705 77.7693 70.7914C77.3017 68.6715 78.1463 66.6824 79.6596 66.3501C79.8054 66.3198 79.9511 66.2997 80.0969 66.2997Z" fill="black"/>
<path d="M82.3291 71.9245C82.5603 71.9245 83.0279 71.8238 83.6462 71.6475C83.6764 71.6375 83.6915 71.6173 83.6965 71.6073C83.7015 71.5972 83.7116 71.572 83.6965 71.5418C83.4552 70.998 82.8268 70.1469 82.5302 69.7592C82.2888 70.8469 82.1883 71.8137 82.309 71.9346H82.3341L82.3291 71.9245Z" fill="white"/>
<path d="M82.5955 70.0513C82.4447 70.7966 82.3441 71.5368 82.3944 71.7987C82.6206 71.7836 83.0379 71.6929 83.5608 71.5418C83.3546 71.0987 82.9072 70.4693 82.5955 70.0513ZM82.4648 69.4672C82.4648 69.4672 83.4803 70.7412 83.8121 71.4865C83.8624 71.6023 83.8021 71.7282 83.6814 71.7634C83.3396 71.8641 82.6659 72.0454 82.3291 72.0454C82.314 72.0454 82.2939 72.0454 82.2788 72.0454C81.8565 72.0152 82.4648 69.4672 82.4648 69.4672Z" fill="black"/>
<path d="M82.4648 67.8054C82.4648 67.8054 82.9173 68.4802 83.0078 68.8024C83.0078 68.8024 82.0274 69.1046 80.9968 68.4298C79.4836 67.4328 77.9452 68.5456 77.9452 68.5456L78.1363 67.2666L82.1431 66.3652L82.4648 67.8104V67.8054Z" fill="black"/>
<path d="M78.2218 69.2304C78.2218 69.2304 78.9004 69.2455 79.1418 68.4701C79.3831 67.6946 80.3986 67.75 81.1275 68.1377C81.8615 68.5255 83.043 68.6715 83.8674 68.1981C84.4959 67.8356 85.2449 66.5616 84.0786 65.6854C83.0178 64.8898 80.288 64.638 79.4333 64.7991C77.8849 65.0912 76.055 67.1205 76.3767 69.0089C76.603 70.3383 77.352 72.4532 78.4329 72.428C78.1514 71.0281 77.7844 70.1167 78.2218 69.2304Z" fill="black"/>
<path d="M78.5435 70.016C78.5435 70.016 77.9654 69.3916 77.528 69.8901C77.0856 70.3886 77.7643 71.9748 78.5184 71.4511C79.2725 70.9274 78.5485 70.016 78.5485 70.016H78.5435Z" fill="white"/>
<path d="M83.5658 65.7609C83.8624 65.8566 84.0786 65.9926 84.1691 66.3098C84.2646 66.6422 84.1992 66.9796 84.0333 67.2767C83.9328 67.4529 83.6563 67.2918 83.7568 67.1155C83.9831 66.7227 83.9579 66.2242 83.4803 66.0732C83.2843 66.0127 83.3697 65.7056 83.5658 65.766V65.7609Z" fill="black"/>
<path d="M77.8145 66.2897C78.3575 65.5444 79.4585 65.1013 80.3634 65.1315C80.5695 65.1366 80.5695 65.4588 80.3634 65.4488C79.5892 65.4186 78.5636 65.8013 78.091 66.4458C77.9704 66.612 77.6939 66.4509 77.8145 66.2847V66.2897Z" fill="black"/>
<path d="M82.495 77.8666C84.1691 77.1213 84.1892 75.9782 84.1892 75.9279V75.8775L84.154 75.8423C83.6864 75.3488 82.8821 75.2934 82.5603 75.2934C82.4799 75.2934 82.4346 75.2934 82.4346 75.2934H82.3844L82.3492 75.3337C81.771 75.9782 81.1879 76.0135 81.1778 76.0135L80.6751 76.0387L81.1326 76.2501C81.1326 76.2501 81.957 76.648 82.324 77.781L82.3693 77.9119L82.495 77.8565V77.8666Z" fill="white"/>
<path d="M82.5603 75.4192C82.4849 75.4192 82.4447 75.4192 82.4447 75.4192C81.8163 76.1141 81.1879 76.1393 81.1879 76.1393C81.1879 76.1393 82.0526 76.5371 82.4447 77.7456C84.0635 77.0256 84.0635 75.9228 84.0635 75.9228C83.6261 75.4595 82.8519 75.4142 82.5603 75.4142V75.4192ZM82.5603 75.1674C82.9022 75.1674 83.7468 75.2228 84.2495 75.7566L84.3199 75.8271V75.9278C84.3199 75.9782 84.2998 77.2068 82.5503 77.9823L82.2939 78.0931L82.2084 77.8262C81.8615 76.7486 81.1175 76.386 81.0873 76.3709L80.1723 75.9379L81.1828 75.8925C81.1828 75.8925 81.7258 75.8523 82.2637 75.253L82.3291 75.1775H82.4296C82.4296 75.1775 82.4799 75.1674 82.5603 75.1674Z" fill="black"/>
<path d="M72.5962 88.6628L67.7398 89.7556L76.804 77.7205C76.804 77.7205 76.427 77.7759 76.7689 79.4477C76.8191 83.6423 77.3118 86.0191 72.5911 88.6628H72.5962Z" fill="black"/>
<path d="M80.6349 77.7809C80.7756 77.1515 81.2934 76.2199 81.2985 76.2098L81.399 76.0285H81.1929C79.7299 75.9883 78.6641 75.2581 78.6541 75.2531L78.629 75.238H78.5988C78.5435 75.2279 78.4832 75.2229 78.4329 75.2229C77.9905 75.2229 77.6285 75.4595 77.6134 75.4696L77.5028 75.5401L77.5782 75.6458C78.4832 76.9249 80.3785 77.8313 80.4589 77.8716L80.5997 77.937L80.6349 77.786V77.7809Z" fill="white"/>
<path d="M78.4329 75.3387C78.0257 75.3387 77.6838 75.5653 77.6838 75.5653C78.5837 76.8292 80.5142 77.7507 80.5142 77.7507C80.66 77.0961 81.1929 76.1444 81.1929 76.1444C79.6696 76.1041 78.5837 75.3487 78.5837 75.3487C78.5334 75.3437 78.4832 75.3387 78.4329 75.3387ZM78.4329 75.0869C78.4932 75.0869 78.5586 75.0869 78.6189 75.102L78.6792 75.1121L78.7295 75.1473C78.7295 75.1473 79.7802 75.8624 81.2029 75.8976L81.6202 75.9077L81.4191 76.2703C81.4191 76.2703 80.9063 77.1968 80.7706 77.8111L80.7002 78.1183L80.4187 77.9824C80.3382 77.9421 78.4128 77.0206 77.4878 75.7163L77.3369 75.5048L77.5531 75.3588C77.5531 75.3588 77.9654 75.0919 78.4429 75.0919L78.4329 75.0869Z" fill="black"/>
<path d="M77.6687 100.713C77.7492 100.698 77.7994 100.673 77.8095 100.647C77.8497 100.532 77.5782 100.209 77.4174 100.018C77.1811 99.7361 77.0102 99.5346 77.0705 99.3634C77.0906 99.3131 77.1358 99.2426 77.2565 99.2174C77.3973 99.2174 77.5229 99.3433 77.8849 99.726C78.2217 100.084 78.7848 100.673 79.0261 100.673C79.0261 100.673 79.0714 100.673 79.0915 100.592C79.1166 100.491 78.8904 100.053 78.7546 99.7914C78.4882 99.2778 78.3524 99.0009 78.448 98.8448C78.4832 98.7894 78.5435 98.7541 78.6189 98.7541C78.6491 98.7541 78.6843 98.7591 78.7194 98.7692L78.7446 98.7793L78.7647 98.7944C78.9105 98.9203 79.1015 99.1419 79.3026 99.3735C79.6545 99.7814 80.1371 100.34 80.3885 100.34C80.4187 100.34 80.4388 100.33 80.4589 100.31C80.5293 100.164 80.107 99.2476 79.8204 98.9404C79.192 98.2556 79.2724 98.0642 79.3026 97.9988C79.3328 97.9232 79.4082 97.8779 79.4987 97.8779C79.7098 97.8779 80.0768 98.1146 80.5041 98.5275C80.6952 98.7138 80.8561 98.7793 80.9465 98.7793C80.9918 98.7793 81.0069 98.7591 81.0119 98.7541C81.0421 98.7088 81.0421 98.5829 80.9516 98.3714C80.469 97.2787 78.9507 96.7449 77.7643 96.4881L77.4676 96.4226L77.724 96.2565C78.0357 96.0651 78.3575 96.045 78.6692 96.0198H78.7697C78.8552 96.0047 78.9507 95.9443 78.9859 95.8738C79.006 95.8284 79.006 95.7881 78.9758 95.7378C78.8401 95.5364 78.639 95.4407 78.3625 95.4407C77.5833 95.4407 76.5074 96.2011 76.2008 96.4327C75.9192 96.5183 75.5673 96.6392 75.2204 96.8255L75.1601 96.8607L75.0998 96.8255C74.773 96.6392 67.046 92.233 66.0808 91.1806C65.9299 91.0144 65.8595 90.8231 65.8847 90.6166C65.9651 89.8613 67.227 88.97 68.8206 87.842C71.3444 86.0594 74.4814 83.8387 74.2401 81.2454C74.044 79.1203 73.0335 77.9924 71.3293 77.9924C69.2077 77.9924 66.1763 79.7448 63.6023 82.4589C60.8423 85.3745 59.2738 88.693 59.4145 91.3317C59.6156 95.1235 71.6008 98.462 75.2858 98.4872H75.321L75.3511 98.5074C75.5371 98.6333 75.8086 98.9555 76.1203 99.3282C76.6029 99.9073 77.2665 100.703 77.6285 100.703C77.6386 100.703 77.6537 100.703 77.6637 100.703L77.6687 100.713Z" fill="white"/>
<path d="M71.3293 78.1334C69.2379 78.1334 66.2416 79.8707 63.6928 82.5597C60.9529 85.4501 59.4045 88.7333 59.5402 91.3367C59.7363 95.063 71.6309 98.3462 75.2908 98.3765H75.3662L75.4265 98.4167C75.6276 98.5477 75.8891 98.8649 76.2209 99.2627C76.6331 99.7612 77.3269 100.592 77.6436 100.592C77.6436 100.592 77.6637 100.592 77.6738 100.587C77.6235 100.466 77.4274 100.235 77.3168 100.099C77.0554 99.7864 76.8644 99.5598 76.9498 99.3231C76.975 99.2527 77.0453 99.1318 77.2314 99.0965H77.2816C77.4475 99.0965 77.5732 99.2174 77.9804 99.6404C78.2117 99.8821 78.7245 100.421 78.9658 100.532C78.9256 100.381 78.7597 100.058 78.6541 99.8519C78.3575 99.2778 78.2217 98.9958 78.3525 98.7793C78.4128 98.6836 78.5133 98.6282 78.629 98.6282C78.6742 98.6282 78.7194 98.6333 78.7647 98.6484L78.815 98.6635L78.8552 98.6987C79.011 98.8297 79.197 99.0462 79.4082 99.2929C79.6495 99.5699 80.1271 100.129 80.3382 100.214C80.293 99.9425 79.9562 99.2627 79.74 99.0311C79.1317 98.3714 79.1317 98.1096 79.2021 97.9535C79.2574 97.8326 79.373 97.7621 79.5138 97.7621C79.8456 97.7621 80.3382 98.1901 80.6047 98.447C80.7404 98.5779 80.846 98.6333 80.9114 98.6534C80.9114 98.6131 80.8913 98.5376 80.841 98.4268C80.3584 97.3291 78.6943 96.8205 77.7441 96.619L77.2112 96.4982L77.6486 96.1658L77.6637 96.1558H77.6738C78.0056 95.9493 78.3424 95.9241 78.6692 95.904H78.7697C78.82 95.8939 78.8753 95.8486 78.8753 95.8184C78.7647 95.6522 78.6038 95.5767 78.3675 95.5767C77.7793 95.5767 76.9046 96.0802 76.2812 96.5485L76.241 96.5787L76.1957 96.5939C75.869 96.6845 75.5472 96.8104 75.2858 96.9564L75.1601 97.0219L75.0394 96.9514C74.7127 96.7651 66.9605 92.3438 65.9903 91.2813C65.8143 91.0849 65.7339 90.8634 65.759 90.6166C65.8445 89.8059 67.1264 88.8995 68.7503 87.7514C71.2438 85.9889 74.3507 83.7934 74.1144 81.2655C73.9183 79.1858 72.9833 78.1283 71.3293 78.1283V78.1334ZM71.3293 77.8816C72.9531 77.8816 74.1446 78.8585 74.3658 81.2454C74.8032 85.9335 64.5826 89.3779 66.1712 91.1101C67.1315 92.1575 75.15 96.7248 75.1601 96.7298C75.4617 96.5636 75.8086 96.4327 76.1253 96.3471C76.6934 95.9191 77.6486 95.3249 78.3625 95.3249C78.6591 95.3249 78.9105 95.4256 79.0814 95.6774C79.2322 95.904 78.9959 96.1306 78.7848 96.1457C78.4379 96.1709 78.1111 96.1759 77.8045 96.3622H77.7944C79.0814 96.6442 80.5846 97.2183 81.0672 98.3211C81.2381 98.7088 81.1527 98.9102 80.9516 98.9102C80.8158 98.9102 80.6248 98.8146 80.4237 98.6232C79.9914 98.2103 79.6596 98.0089 79.5037 98.0089C79.3227 98.0089 79.4082 98.3009 79.916 98.8548C80.1874 99.1469 80.7354 100.219 80.5494 100.401C80.5041 100.446 80.4539 100.466 80.3935 100.466C79.9361 100.466 79.1166 99.2526 78.6893 98.8901C78.6641 98.8851 78.644 98.88 78.6239 98.88C78.267 98.88 79.3127 100.315 79.2172 100.632C79.182 100.753 79.1166 100.799 79.0311 100.799C78.5586 100.799 77.4626 99.3383 77.2867 99.3383H77.2816C76.7538 99.439 78.5737 100.668 77.6888 100.834C77.6687 100.834 77.6486 100.839 77.6285 100.839C76.9699 100.839 75.7584 98.9354 75.2858 98.6232C71.837 98.598 59.5 95.3551 59.2888 91.3468C58.9771 85.43 66.8198 77.8766 71.3243 77.8766L71.3293 77.8816Z" fill="black"/>
<path d="M76.7035 75.9278C76.7035 75.9278 77.7844 81.7187 72.9079 85.6062L70.3791 88.2448C70.3791 88.2448 65.9601 83.033 66.2014 79.7448C66.2014 79.7448 69.7608 76.8946 76.7035 75.9278Z" fill="#AAB6C2"/>
<path d="M70.354 89.0002L71.7063 87.4039C71.7063 87.4039 66.684 83.4157 67.2823 78.4758L65.2864 79.7901C65.2864 79.7901 66.6488 85.8882 70.354 89.0002Z" fill="black"/>
<path d="M82.681 69.4067L82.314 72.569L81.4443 72.4834L81.9973 69.3563L82.681 69.4067Z" fill="white"/>
</g>
</g>
<rect x="67.3858" y="58.9667" width="27.0066" height="27.0066" rx="13.5033" stroke="#EEEEEE" stroke-width="0.771618"/>
<g clip-path="url(#clip2_610_43896)">
<rect x="102.494" y="20" width="27.7783" height="27.7783" rx="13.8891" fill="white"/>
<path d="M121.004 47.4687C122.022 49.5868 123.417 52.2257 125.13 54.3149C126.305 55.7501 127.636 56.9307 129.094 57.492C129.152 57.5152 129.21 57.5383 129.274 57.5499H129.28C133.863 59.1124 139.754 58.9504 139.754 58.9504C139.691 58.742 140.709 57.0001 140.709 57.0001C140.35 57.0406 133.776 52.9375 132.173 52.463C131.641 52.3183 123.793 35.7034 123.082 35.2058C122.115 34.5171 121.062 34.1236 120.228 34.7196C117.653 36.5657 118.377 41.9709 121.004 47.4687Z" fill="white"/>
<path d="M139.303 59.1066C139.586 59.1066 139.749 59.1066 139.76 59.1066H139.963L139.905 58.9099C139.916 58.771 140.397 57.845 140.842 57.0811L140.993 56.8207L140.692 56.8554C140.512 56.8265 139.135 56.0337 137.798 55.2698C135.726 54.0834 133.145 52.6019 132.214 52.3241C131.919 52.0868 129.76 47.7638 127.856 43.9559C125.182 38.6086 123.533 35.3446 123.168 35.09C121.941 34.2104 120.923 34.0483 120.142 34.6039C117.671 36.369 117.96 41.4501 120.871 47.5381C122.289 50.4896 123.643 52.7408 125.014 54.4133C126.334 56.0279 127.694 57.1159 129.042 57.6367C129.071 57.6483 129.1 57.6598 129.129 57.6656V57.7003H129.262C133.082 58.9967 137.839 59.1008 139.314 59.1008L139.303 59.1066ZM139.627 58.7999C138.77 58.8115 133.55 58.8173 129.424 57.4457V57.4341L129.303 57.3994C129.245 57.3878 129.193 57.3647 129.146 57.3473C127.844 56.8439 126.531 55.7906 125.246 54.2107C123.892 52.5556 122.549 50.3275 121.143 47.3935C118.342 41.5311 118.012 36.4847 120.321 34.8354C120.981 34.3608 121.884 34.5287 123.001 35.3215C123.342 35.5819 125.697 40.2926 127.59 44.0774C130.859 50.6111 131.849 52.5209 132.138 52.6019C133.041 52.8681 135.599 54.338 137.659 55.5186C139.367 56.4966 140.136 56.9307 140.495 57.0811C140.009 57.926 139.725 58.499 139.639 58.7941L139.627 58.7999Z" fill="black"/>
<path d="M124.47 35.7382C124.835 36.5136 118.053 36.068 116.808 35.4951C114.343 34.3608 113.359 30.3561 114.187 27.8677C114.586 26.6639 115.373 25.275 116.316 24.4185C117.202 23.6199 117.96 23.9787 119.048 24.0481C119.077 24.0481 119.094 24.0597 119.117 24.0655C119.285 24.0192 120.396 24.9451 120.483 25.1477C121.363 27.2021 121.305 28.3885 122.127 30.4661C122.41 31.1895 123.163 32.9661 124.465 35.7382H124.47Z" fill="black"/>
<path d="M126.664 52.5151C115.743 57.2779 107.265 54.2397 107.937 52.735C108.261 52 109.464 49.4826 109.551 48.5799C109.713 47.1446 109.638 45.6689 109.54 44.7025C109.493 44.2279 109.447 43.8749 109.424 43.7071C109.418 43.6839 109.407 43.6608 109.407 43.6492C108.527 39.2799 106.617 34.0947 111.692 32.4974C112.317 32.2949 113.058 32.156 113.915 32.0749H113.921C114.841 31.9881 115.911 31.9823 117.138 32.0518C117.138 32.0518 118.678 32.59 120.448 33.4812C121.05 33.7879 121.687 34.1352 122.3 34.5171C124.129 35.663 124.528 37.9662 124.465 39.5346C124.424 40.6225 122.838 43.6261 122.96 44.2048C123.886 48.412 125.825 51.0105 126.67 52.5035L126.664 52.5151Z" fill="#AAB6C2"/>
<path d="M119.21 30.5355V32.5842C119.21 32.5842 119.76 33.5911 119.21 33.7011C118 33.9441 116.253 32.0575 116.253 32.0575V29.3086L119.21 30.5355Z" fill="white"/>
<path d="M118.99 33.8747C119.077 33.8747 119.158 33.8689 119.239 33.8516C119.389 33.8226 119.494 33.7416 119.557 33.6143C119.713 33.2786 119.441 32.7057 119.36 32.5495V30.4372L116.102 29.0888V32.1212L116.143 32.1675C116.212 32.2427 117.746 33.8805 118.99 33.8805V33.8747ZM119.059 30.6339L119.077 32.6536C119.21 32.8967 119.36 33.3134 119.279 33.4812C119.268 33.5101 119.245 33.5391 119.175 33.5506C118.157 33.7532 116.664 32.2659 116.403 31.9939V29.5344L119.054 30.6339H119.059Z" fill="black"/>
<path d="M119.789 24.569C119.789 24.569 120.877 26.7797 121.149 28.8342C121.34 30.2925 118.666 32.2196 116.49 30.1652C114.314 28.1108 114.916 24.9626 114.916 24.9626L119.789 24.569Z" fill="white"/>
<path d="M118.585 31.2126C119.036 31.2126 119.488 31.1027 119.922 30.8828C120.836 30.414 121.403 29.5633 121.299 28.811C121.027 26.7507 119.933 24.5227 119.922 24.4996L119.875 24.407L114.789 24.8178L114.765 24.9278C114.76 24.9625 114.169 28.1802 116.386 30.2693C117.04 30.8886 117.809 31.2068 118.585 31.2068V31.2126ZM119.696 24.7253C119.899 25.1651 120.767 27.0806 120.998 28.8515C121.079 29.4707 120.57 30.2115 119.783 30.6166C118.73 31.1548 117.537 30.9464 116.594 30.0552C114.731 28.2959 114.968 25.6743 115.049 25.1014L119.696 24.7253Z" fill="black"/>
<path d="M124.065 64.8996C123.967 63.9157 123.128 63.0882 122.237 62.5673H122.248C122.468 62.5905 122.752 62.6021 122.96 62.5037C123.301 62.3474 123.064 62.087 122.821 61.9886C122.376 61.8034 121.27 62.0176 120.819 62.1102C120.703 61.9713 118.122 60.3509 115.483 58.4932C113.782 57.3126 112.537 55.9584 111.426 54.9167C110.813 54.338 107.809 50.86 107.45 50.7095C107.097 50.5532 112.942 41.4732 112.971 38.0241C112.983 36.4558 112.757 32.9256 110.784 32.7636C107.624 32.509 103.33 40.8945 102.56 42.3008C99.9099 47.5092 100.68 51.1088 103.533 54.8184C106.617 58.8231 113.174 62.2838 116.525 63.1808C117.85 63.5338 118.706 63.6843 118.712 63.6843C118.84 63.8231 119.042 63.9042 119.204 64.0836C119.528 64.4482 119.852 66.0107 120.408 66.1727C121.149 66.3926 120.228 65.05 120.709 65.0384C120.882 65.0384 121.907 67.1855 122.109 66.0338C122.156 65.7792 121.635 64.6102 122.046 64.8417C122.341 65.2931 122.867 66.3926 123.319 66.0975C123.533 65.9586 123.29 65.2815 123.105 64.9979C122.185 63.5859 122.873 64.0894 123.429 65.0732C123.718 65.5824 124.129 65.5303 124.065 64.8938V64.8996Z" fill="white"/>
<path d="M121.884 66.5315C121.884 66.5315 121.924 66.5315 121.947 66.5257C122.185 66.4737 122.242 66.1727 122.26 66.0686C122.283 65.947 122.231 65.7618 122.15 65.4725C122.127 65.3915 122.098 65.2873 122.075 65.1889L122.086 65.2063C122.352 65.6519 122.682 66.2017 123.058 66.2885C123.18 66.3174 123.296 66.2943 123.4 66.2248C123.556 66.1207 123.591 65.9007 123.504 65.5651C123.487 65.4956 123.463 65.4204 123.435 65.351C123.591 65.5304 123.77 65.6056 123.932 65.5535C124.031 65.5246 124.256 65.3915 124.21 64.8822C124.112 63.881 123.33 63.1403 122.74 62.7178C122.838 62.7062 122.931 62.6831 123.012 62.6426C123.238 62.5384 123.273 62.3822 123.273 62.3011C123.273 62.087 123.053 61.925 122.867 61.8497C122.433 61.6703 121.525 61.815 120.854 61.9481C120.72 61.844 120.385 61.6183 119.563 61.0801C118.568 60.4203 117.057 59.4249 115.558 58.3717C114.25 57.4631 113.214 56.4503 112.294 55.5591C112.028 55.2987 111.768 55.0441 111.519 54.8126C111.282 54.5927 110.668 53.9098 110.02 53.1922C108.747 51.7801 107.908 50.8658 107.584 50.6285C107.665 50.3449 108.214 49.338 108.799 48.2673C110.402 45.3159 113.087 40.3853 113.11 38.0299C113.122 36.803 112.983 32.7983 110.784 32.6189C108.747 32.4569 105.986 35.5877 102.584 41.9246L102.416 42.2314C99.933 47.1099 100.222 50.779 103.399 54.9168C106.472 58.9099 113.081 62.4285 116.473 63.3313C117.618 63.638 118.423 63.7884 118.625 63.8289C118.683 63.8868 118.753 63.9331 118.822 63.9794C118.909 64.0373 119.002 64.1009 119.077 64.1877C119.181 64.3093 119.308 64.6218 119.43 64.9285C119.679 65.5535 119.933 66.2017 120.35 66.3232C120.414 66.3406 120.616 66.4042 120.749 66.2711C120.906 66.1207 120.836 65.8544 120.767 65.5767C120.744 65.4841 120.709 65.3394 120.697 65.2526C120.755 65.3278 120.836 65.4493 120.906 65.5535C121.288 66.1207 121.583 66.5315 121.872 66.5315H121.884ZM121.953 64.6681C121.895 64.6681 121.855 64.6912 121.826 64.7144C121.669 64.8359 121.733 65.0963 121.86 65.5535C121.907 65.7156 121.97 65.9586 121.959 66.0165C121.924 66.1959 121.884 66.2306 121.878 66.2306C121.733 66.2306 121.322 65.6172 121.166 65.3857C120.923 65.0211 120.836 64.8938 120.703 64.8938C120.582 64.8938 120.512 64.9574 120.472 65.0037C120.356 65.1542 120.419 65.3973 120.483 65.6577C120.512 65.7792 120.57 65.9991 120.547 66.057C120.547 66.057 120.512 66.057 120.443 66.0338C120.165 65.9528 119.904 65.2989 119.713 64.8185C119.569 64.4597 119.447 64.1472 119.303 63.9852C119.204 63.8695 119.088 63.7942 118.99 63.7248C118.915 63.6727 118.851 63.6322 118.805 63.5801L118.77 63.5454L118.724 63.5338C118.631 63.5164 117.798 63.366 116.548 63.0303C113.197 62.1333 106.675 58.661 103.637 54.72C100.541 50.6921 100.263 47.1157 102.682 42.3645L102.844 42.0577C107.005 34.3088 109.441 32.8099 110.755 32.9083C112.699 33.0645 112.815 36.8551 112.804 38.0183C112.786 40.2984 110.118 45.1886 108.527 48.1169C107.439 50.1134 107.213 50.5533 107.277 50.7384L107.3 50.8021L107.375 50.8426C107.584 50.941 108.915 52.4109 109.794 53.389C110.477 54.1471 111.067 54.7952 111.311 55.0267C111.559 55.2582 111.814 55.5128 112.086 55.7675C113.012 56.6703 114.059 57.6888 115.385 58.6147C116.889 59.6738 118.4 60.6692 119.395 61.3289C120.055 61.7687 120.628 62.1449 120.697 62.2085L120.755 62.278L120.842 62.2548C121.837 62.0523 122.48 62.0118 122.752 62.1217C122.896 62.1796 122.972 62.278 122.966 62.3011C122.966 62.3011 122.954 62.3243 122.885 62.359C122.746 62.4227 122.543 62.44 122.254 62.4111L121.554 62.3417L122.15 62.6947C122.642 62.9782 123.793 63.7653 123.903 64.9111C123.926 65.1542 123.869 65.2584 123.84 65.2642C123.799 65.2757 123.672 65.2121 123.55 64.9979C123.545 64.9864 122.966 63.9736 122.671 63.9736H122.578L122.52 64.0662C122.48 64.1472 122.428 64.2456 122.972 65.0848C123.168 65.3857 123.296 65.9007 123.226 65.9818C123.192 66.0049 123.157 66.0107 123.116 65.9991C122.867 65.9412 122.549 65.4088 122.335 65.0558C122.271 64.9459 122.208 64.8475 122.156 64.7665L122.104 64.7202C122.04 64.6854 121.988 64.6739 121.941 64.6739L121.953 64.6681Z" fill="black"/>
<path d="M121.137 25.738C120.801 26.2299 120.13 26.1836 119.644 25.9811C119.331 25.848 119.054 25.6512 118.822 25.4081C118.666 25.2403 118.527 24.9973 118.365 24.8294C117.711 24.8294 117.127 25.2461 116.698 25.8306C116.664 26.0794 116.803 26.3688 116.698 26.6813C114.951 31.8666 118.614 35.5703 119.441 37.2949C119.551 37.5264 119.337 37.7347 119.129 37.781C115.767 38.4639 108.839 39.5577 109.152 34.0599C109.297 31.5483 110.471 28.9499 111.999 26.9996C113.209 25.4602 114.615 23.1743 116.669 22.9312C117.485 22.8329 118.267 22.9428 119.1 23.0817C121.172 23.4289 121.444 25.304 121.143 25.7438L121.137 25.738Z" fill="black"/>
</g>
<rect x="102.88" y="20.3858" width="27.0066" height="27.0066" rx="13.5033" stroke="#EEEEEE" stroke-width="0.771618"/>
<g clip-path="url(#clip3_610_43896)">
<rect x="148.792" y="23.8581" width="27.7783" height="27.7783" rx="13.8891" fill="white"/>
<g clip-path="url(#clip4_610_43896)">
<path d="M183.994 62.3898C184.386 62.3898 184.738 62.3445 185.054 62.2488C188.82 61.1309 190.172 50.4605 189.277 47.2428L187.885 45.9839C187.719 46.4774 187.216 47.9175 186.542 49.4987C185.235 52.5604 184.049 54.4084 183.013 55.0026C182.852 55.0983 182.676 55.1436 182.495 55.1436C181.716 55.1436 180.882 54.2523 180.092 53.2956C179.715 52.8373 179.293 52.233 178.8 51.5381C177.066 49.0808 174.693 45.722 172.255 45.722C171.787 45.722 171.325 45.8479 170.882 46.0997C169.138 47.0967 168.514 48.5973 169.032 50.5663C170.45 55.9342 179.424 62.3949 183.989 62.3949L183.994 62.3898Z" fill="white"/>
<path d="M172.255 45.8479C171.807 45.8479 171.37 45.9687 170.948 46.2104C169.259 47.1773 168.655 48.6326 169.158 50.531C169.781 52.8826 172.094 55.7881 175.347 58.311C178.494 60.7482 181.807 62.2639 183.994 62.2639C184.371 62.2639 184.718 62.2186 185.019 62.1279C188.714 61.0302 190.036 50.541 189.167 47.3082L187.945 46.2004C187.734 46.8147 187.266 48.1189 186.663 49.549C185.346 52.6308 184.144 54.5041 183.084 55.1083C182.903 55.2141 182.707 55.2644 182.506 55.2644C181.721 55.2644 180.937 54.5091 180.002 53.371C179.625 52.9078 179.198 52.3035 178.705 51.6086C176.986 49.1764 174.638 45.8428 172.265 45.8428L172.255 45.8479ZM172.255 45.5961C175.442 45.5961 178.459 51.105 180.188 53.2149C181.038 54.2523 181.807 55.0177 182.495 55.0177C182.651 55.0177 182.802 54.9774 182.953 54.8918C184.185 54.1868 185.482 51.664 186.427 49.4534C187.261 47.4844 187.824 45.7623 187.824 45.7623L189.388 47.1773C190.343 50.4957 188.935 61.2316 185.09 62.3747C184.758 62.4754 184.391 62.5207 183.994 62.5207C177.564 62.5207 163.427 50.2188 170.822 45.9939C171.3 45.722 171.777 45.5961 172.255 45.5961Z" fill="black"/>
<path d="M182.978 56.5535C185.879 55.8888 186.417 49.6396 186.422 49.4584C185.477 51.669 184.18 54.1918 182.948 54.8968C182.149 55.355 181.229 54.4889 180.188 53.2199C177.096 48.3858 174.703 46.573 174.703 46.573L175.06 51.7143C175.06 51.7143 179.554 57.3441 182.978 56.5585V56.5535Z" fill="black"/>
<path d="M166.358 41.5425C166.358 41.5425 164.749 47.2075 169.178 51.5331L171.727 55.627C171.727 55.627 176.93 50.1332 177.001 46.8399C177.001 46.8399 173.089 43.1589 166.358 41.5475V41.5425Z" fill="#AAB6C2"/>
<path d="M173.381 50.9238L171.727 55.627L166.353 41.5425C166.353 41.5425 166.202 41.8899 167.796 42.4892C171.37 44.6746 173.642 45.5155 173.376 50.9238H173.381Z" fill="black"/>
<path d="M170.762 54.3731C170.762 54.3731 175.94 48.2951 175.94 45.304L177.785 46.7391C177.785 46.7391 176.463 52.8976 171.817 56.4074L170.757 54.3731H170.762Z" fill="black"/>
<path d="M173.562 64.555C173.562 64.555 165.845 68.4224 150.351 65.6629C150.351 65.6629 148.988 39.9209 162.467 40.495C170.686 40.8425 171.425 48.2951 173.562 64.5601V64.555Z" fill="#AAB6C2"/>
<path d="M162.713 41.3108C163.542 41.3108 163.955 40.8727 164.08 40.7015C163.241 39.5483 163.271 38.6016 163.311 38.2693L160.672 37.6247C160.989 38.9692 160.642 40.213 160.521 40.5705C161.346 41.059 162.08 41.3108 162.708 41.3108H162.713Z" fill="white"/>
<path d="M160.838 37.796C161.069 38.9944 160.808 40.0771 160.672 40.5152C161.441 40.9583 162.125 41.1849 162.713 41.1849C163.392 41.1849 163.769 40.8778 163.925 40.6965C163.196 39.6541 163.15 38.7779 163.18 38.365L160.838 37.796ZM160.496 37.4536L163.457 38.1787C163.457 38.1787 163.17 39.2915 164.236 40.7015C164.236 40.7015 163.824 41.4367 162.713 41.4367C162.135 41.4367 161.366 41.2353 160.37 40.626C160.37 40.626 160.963 39.07 160.496 37.4536Z" fill="black"/>
<path d="M162.703 39.221C162.844 39.221 162.979 39.2059 163.115 39.1757C163.804 39.0246 164.372 38.5009 164.714 37.7003C165.061 36.8845 165.131 35.8875 164.91 34.8854C164.513 33.0726 163.216 31.7029 161.893 31.7029C161.753 31.7029 161.617 31.718 161.481 31.7482C160.793 31.8993 160.224 32.428 159.883 33.2236C159.536 34.0394 159.465 35.0364 159.686 36.0385C160.084 37.8513 161.381 39.221 162.703 39.221Z" fill="white"/>
<path d="M161.888 31.8287C161.758 31.8287 161.632 31.8438 161.501 31.869C160.853 32.01 160.315 32.5085 159.993 33.2739C159.656 34.0645 159.591 35.0364 159.807 36.0083C160.194 37.7657 161.441 39.09 162.703 39.09C162.834 39.09 162.964 39.0749 163.09 39.0498C164.462 38.7476 165.222 36.8895 164.784 34.9105C164.397 33.1531 163.155 31.8287 161.888 31.8287ZM161.888 31.5769C163.256 31.5769 164.608 32.9416 165.026 34.8551C165.493 36.9751 164.648 38.9641 163.14 39.2965C162.994 39.3267 162.849 39.3469 162.703 39.3469C161.335 39.3469 159.983 37.9822 159.561 36.0687C159.093 33.9487 159.938 31.9596 161.451 31.6273C161.597 31.5971 161.743 31.5769 161.888 31.5769Z" fill="black"/>
<path d="M164.256 33.0826C164.256 33.0826 164.709 33.7574 164.799 34.0797C164.799 34.0797 163.819 34.3818 162.788 33.707C161.275 32.71 159.737 33.8229 159.737 33.8229L159.928 32.5438L163.935 31.6424L164.256 33.0877V33.0826Z" fill="black"/>
<path d="M159.98 33.7473C159.98 33.7473 162.054 33.1214 162.295 32.3459C162.536 31.5704 162.19 33.0272 162.919 33.415C163.653 33.8027 163.785 34.2206 164.61 33.7473C165.238 33.3847 165.987 32.1107 164.821 31.2345C163.76 30.4389 162.079 29.9152 161.225 30.0764C159.676 30.3684 157.846 32.3978 158.168 34.2861C158.394 35.6155 159.144 37.7305 160.224 37.7053C159.943 36.3054 159.543 34.6336 159.98 33.7473Z" fill="black"/>
<path d="M160.335 35.2932C160.335 35.2932 159.757 34.6688 159.32 35.1673C158.877 35.6659 159.556 37.2521 160.31 36.7284C161.064 36.2047 160.34 35.2932 160.34 35.2932H160.335Z" fill="white"/>
<path d="M159.606 31.5669C160.149 30.8217 161.25 30.3785 162.155 30.4088C162.361 30.4138 162.361 30.7361 162.155 30.726C161.381 30.6958 160.355 31.0785 159.883 31.7231C159.762 31.8892 159.485 31.7281 159.606 31.5619V31.5669Z" fill="black"/>
<path d="M154.388 53.9401L149.531 55.0328L158.596 42.9977C158.596 42.9977 158.219 43.0531 158.56 44.7249C158.611 48.9196 159.103 51.2964 154.383 53.9401H154.388Z" fill="black"/>
<path d="M159.46 65.9902C159.541 65.9751 159.591 65.9499 159.601 65.9248C159.641 65.8089 159.37 65.4867 159.209 65.2953C158.973 65.0133 158.802 64.8119 158.862 64.6407C158.882 64.5903 158.927 64.5198 159.048 64.4946C159.189 64.4946 159.314 64.6205 159.676 65.0032C160.013 65.3608 160.576 65.9499 160.818 65.9499C160.818 65.9499 160.863 65.9499 160.883 65.8694C160.908 65.7686 160.682 65.3306 160.546 65.0687C160.28 64.5551 160.144 64.2781 160.239 64.122C160.275 64.0666 160.335 64.0314 160.41 64.0314C160.441 64.0314 160.476 64.0364 160.511 64.0465L160.536 64.0565L160.556 64.0717C160.702 64.1975 160.893 64.4191 161.094 64.6507C161.446 65.0586 161.929 65.6176 162.18 65.6176C162.21 65.6176 162.23 65.6075 162.25 65.5874C162.321 65.4413 161.899 64.5249 161.612 64.2177C160.984 63.5328 161.064 63.3415 161.094 63.276C161.124 63.2005 161.2 63.1552 161.29 63.1552C161.501 63.1552 161.868 63.3918 162.296 63.8048C162.487 63.9911 162.648 64.0565 162.738 64.0565C162.783 64.0565 162.798 64.0364 162.803 64.0314C162.834 63.986 162.834 63.8602 162.743 63.6487C162.26 62.5559 160.742 62.0222 159.556 61.7654L159.259 61.6999L159.516 61.5337C159.827 61.3424 160.149 61.3222 160.461 61.297H160.561C160.647 61.2819 160.742 61.2215 160.777 61.151C160.798 61.1057 160.798 61.0654 160.767 61.0151C160.632 60.8136 160.431 60.718 160.154 60.718C159.375 60.718 158.299 61.4783 157.992 61.71C157.711 61.7956 157.359 61.9164 157.012 62.1027L156.952 62.138L156.891 62.1027C156.565 61.9164 148.838 57.5103 147.872 56.4578C147.721 56.2917 147.651 56.1003 147.676 55.8939C147.757 55.1385 149.018 54.2472 150.612 53.1192C153.136 51.3366 156.273 49.1159 156.032 46.5226C155.836 44.3976 154.825 43.2696 153.121 43.2696C150.999 43.2696 147.968 45.022 145.394 47.7362C142.634 50.6518 141.065 53.9703 141.206 56.6089C141.407 60.4007 153.392 63.7393 157.077 63.7645H157.112L157.143 63.7846C157.329 63.9105 157.6 64.2328 157.912 64.6054C158.394 65.1845 159.058 65.9801 159.42 65.9801C159.43 65.9801 159.445 65.9801 159.455 65.9801L159.46 65.9902Z" fill="white"/>
<path d="M153.121 43.4106C151.029 43.4106 148.033 45.1479 145.484 47.8369C142.744 50.7273 141.196 54.0105 141.332 56.6139C141.528 60.3403 153.422 63.6235 157.082 63.6537H157.158L157.218 63.694C157.419 63.8249 157.681 64.1421 158.012 64.54C158.425 65.0385 159.118 65.8693 159.435 65.8693C159.435 65.8693 159.455 65.8694 159.465 65.8643C159.415 65.7435 159.219 65.5118 159.108 65.3759C158.847 65.0637 158.656 64.8371 158.741 64.6004C158.766 64.5299 158.837 64.409 159.023 64.3738H159.073C159.239 64.3738 159.365 64.4946 159.772 64.9176C160.003 65.1593 160.516 65.6981 160.757 65.8089C160.717 65.6579 160.551 65.3356 160.446 65.1291C160.149 64.5551 160.013 64.2731 160.144 64.0565C160.204 63.9609 160.305 63.9055 160.42 63.9055C160.466 63.9055 160.511 63.9105 160.556 63.9256L160.606 63.9407L160.647 63.976C160.803 64.1069 160.989 64.3234 161.2 64.5702C161.441 64.8471 161.919 65.4061 162.13 65.4917C162.085 65.2198 161.748 64.54 161.532 64.3083C160.923 63.6487 160.923 63.3868 160.994 63.2307C161.049 63.1098 161.165 63.0393 161.305 63.0393C161.637 63.0393 162.13 63.4674 162.396 63.7242C162.532 63.8551 162.638 63.9105 162.703 63.9306C162.703 63.8904 162.683 63.8148 162.633 63.704C162.15 62.6063 160.486 62.0977 159.536 61.8963L159.003 61.7754L159.44 61.4431L159.455 61.433H159.465C159.797 61.2265 160.134 61.2014 160.461 61.1812H160.561C160.612 61.1711 160.667 61.1258 160.667 61.0956C160.556 60.9294 160.395 60.8539 160.159 60.8539C159.571 60.8539 158.696 61.3575 158.073 61.8258L158.032 61.856L157.987 61.8711C157.66 61.9617 157.339 62.0876 157.077 62.2337L156.952 62.2991L156.831 62.2286C156.504 62.0423 148.752 57.6211 147.782 56.5585C147.606 56.3622 147.525 56.1406 147.551 55.8938C147.636 55.0831 148.918 54.1767 150.542 53.0286C153.035 51.2661 156.142 49.0706 155.906 46.5428C155.71 44.4631 154.775 43.4056 153.121 43.4056V43.4106ZM153.121 43.1588C154.745 43.1588 155.936 44.1357 156.157 46.5226C156.595 51.2107 146.374 54.6551 147.963 56.3873C148.923 57.4347 156.942 62.002 156.952 62.0071C157.253 61.8409 157.6 61.71 157.917 61.6243C158.485 61.1963 159.44 60.6021 160.154 60.6021C160.451 60.6021 160.702 60.7028 160.873 60.9546C161.024 61.1812 160.787 61.4078 160.576 61.4229C160.229 61.4481 159.903 61.4531 159.596 61.6395H159.586C160.873 61.9214 162.376 62.4955 162.859 63.5983C163.03 63.986 162.944 64.1875 162.743 64.1875C162.607 64.1875 162.416 64.0918 162.215 63.9004C161.783 63.4875 161.451 63.2861 161.295 63.2861C161.114 63.2861 161.2 63.5782 161.707 64.1321C161.979 64.4241 162.527 65.4967 162.341 65.678C162.296 65.7233 162.245 65.7435 162.185 65.7435C161.728 65.7435 160.908 64.5299 160.481 64.1673C160.456 64.1623 160.436 64.1572 160.415 64.1572C160.059 64.1572 161.104 65.5924 161.009 65.9096C160.973 66.0305 160.908 66.0758 160.823 66.0758C160.35 66.0758 159.254 64.6155 159.078 64.6155H159.073C158.545 64.7162 160.365 65.9449 159.48 66.1111C159.46 66.1111 159.44 66.1161 159.42 66.1161C158.761 66.1161 157.55 64.2126 157.077 63.9004C153.629 63.8753 141.292 60.6323 141.08 56.624C140.769 50.7072 148.611 43.1538 153.116 43.1538L153.121 43.1588Z" fill="black"/>
<path d="M158.495 41.205C158.495 41.205 159.576 46.9959 154.699 50.8834L152.171 53.5221C152.171 53.5221 147.752 48.3102 147.993 45.022C147.993 45.022 151.552 42.1719 158.495 41.205Z" fill="#AAB6C2"/>
<path d="M152.146 54.2774L153.498 52.6811C153.498 52.6811 148.476 48.693 149.074 43.753L147.078 45.0673C147.078 45.0673 148.44 51.1654 152.146 54.2774Z" fill="black"/>
<path d="M164.473 34.6839L164.106 37.8463L163.236 37.7607L163.789 34.6335L164.473 34.6839Z" fill="white"/>
</g>
</g>
<rect x="149.177" y="24.2439" width="27.0066" height="27.0066" rx="13.5033" stroke="#EEEEEE" stroke-width="0.771618"/>
<defs>
<clipPath id="clip0_610_43896">
<rect x="67" y="58.5809" width="27.7783" height="27.7783" rx="13.8891" fill="white"/>
</clipPath>
<clipPath id="clip1_610_43896">
<rect width="50.9268" height="79.0991" fill="white" transform="matrix(-1 0 0 1 110.211 64.7538)"/>
</clipPath>
<clipPath id="clip2_610_43896">
<rect x="102.494" y="20" width="27.7783" height="27.7783" rx="13.8891" fill="white"/>
</clipPath>
<clipPath id="clip3_610_43896">
<rect x="148.792" y="23.8581" width="27.7783" height="27.7783" rx="13.8891" fill="white"/>
</clipPath>
<clipPath id="clip4_610_43896">
<rect width="50.9268" height="79.0991" fill="white" transform="matrix(-1 0 0 1 192.002 30.031)"/>
</clipPath>
</defs>
</svg>
