<svg width="280" height="184" viewBox="0 0 280 184" fill="none" xmlns="http://www.w3.org/2000/svg">
<g clip-path="url(#clip0_610_44105)">
<path d="M204.222 40.0995C202.889 32.8917 196.56 27.4199 188.972 27.4199C188.144 27.4199 187.331 27.4859 186.54 27.6104C179.134 28.7824 173.465 35.2064 173.465 42.927C173.465 47.2048 175.208 51.0871 178.021 53.8999C180.826 56.698 184.701 58.4414 188.972 58.4414C197.52 58.4414 204.479 51.4826 204.479 42.9343C204.479 41.9674 204.391 41.0225 204.222 40.1069V40.0995ZM188.972 52.4056C186.364 52.4056 183.998 51.3434 182.284 49.6294C180.563 47.9153 179.501 45.542 179.501 42.927C179.501 38.2097 182.965 34.2835 187.492 33.5656C187.976 33.4924 188.474 33.4484 188.979 33.4484C193.616 33.4484 197.483 36.796 198.297 41.1983C198.399 41.7623 198.458 42.3337 198.458 42.927C198.458 48.1497 194.209 52.4056 188.979 52.4056H188.972Z" fill="#1852FD"/>
<path d="M179.515 42.634C179.435 45.249 180.431 47.6516 182.101 49.417L177.713 53.5556C174.988 50.6622 173.362 46.736 173.487 42.4509C173.721 34.7303 179.581 28.4821 187.016 27.5298L187.778 33.507C183.236 34.0857 179.654 37.9094 179.508 42.6267L179.515 42.634Z" fill="#AAB6C2"/>
<path d="M186.562 25.8231L187.895 34.679C187.895 34.679 195.074 34.8182 196.714 41.2496L205.644 39.3011C205.644 39.3011 202.875 23.9113 186.562 25.8231Z" fill="black"/>
<path d="M214.053 18V19.1061H225.428L225.436 18H214.053Z" fill="black"/>
<path d="M214.053 21.3402V22.4463H234.607L234.614 21.3402H214.053Z" fill="black"/>
<path d="M214.053 24.6731V25.7792H233.134L233.149 24.6731H214.053Z" fill="black"/>
<path d="M226.615 19.1061H230.131L230.138 18H226.63L226.615 19.1061Z" fill="black"/>
<path d="M143 64.2208V65.3269H154.376L154.39 64.2208H143Z" fill="black"/>
<path d="M143 67.5537V68.6671H163.554L163.569 67.5537H143Z" fill="black"/>
<path d="M143 70.8939V72H162.082L162.096 70.8939H143Z" fill="black"/>
<path d="M155.562 65.3269H159.078L159.093 64.2208H155.577L155.562 65.3269Z" fill="black"/>
<path d="M195.513 30.4012L195.198 30.2254L199.886 21.7065H210.148V22.0727H200.106L195.513 30.4012Z" fill="black"/>
<path d="M186.818 65.1731H170.205V64.8068H186.547L188.62 58.0825L188.964 58.1923L186.818 65.1731Z" fill="black"/>
<path d="M188.972 58.5366C188.415 58.5366 187.961 58.0824 187.961 57.5257C187.961 56.969 188.415 56.5149 188.972 56.5149C189.528 56.5149 189.983 56.969 189.983 57.5257C189.983 58.0824 189.528 58.5366 188.972 58.5366ZM188.972 56.8885C188.62 56.8885 188.327 57.1741 188.327 57.5331C188.327 57.892 188.613 58.1777 188.972 58.1777C189.331 58.1777 189.616 57.892 189.616 57.5331C189.616 57.1741 189.331 56.8885 188.972 56.8885Z" fill="black"/>
</g>
<g clip-path="url(#clip1_610_44105)">
<path d="M124.5 56.15L123.892 53.15L123.947 53.0789C124.595 52.2105 124.958 51.3895 125.029 50.6158C125.092 49.8816 124.658 49.3526 123.703 48.9974H123.687C123.608 48.9974 123.568 49.0526 123.568 49.1237L123.553 49.6053L124.074 50.1579L124.161 50.2447L124.121 50.3632C124.097 50.4263 124.066 50.4895 124.034 50.5447L123.639 51.3342L123.624 50.5132C123.624 50.4026 123.624 50.2921 123.608 50.1816L123.545 49.6289L123.197 49.2184L123.15 49.1395L123.118 49.0605C123.118 49.0605 123.095 48.9974 123.079 48.9658C122.811 48.4605 122.361 47.9158 121.918 47.9158C121.887 47.9158 121.847 47.9158 121.808 47.9237C121.397 48.0026 121.192 48.4289 121.145 48.8079L121.105 49.0921L120.853 48.95C120.726 48.8789 120.608 48.8474 120.497 48.8474C120.316 48.8474 120.15 48.9421 120 49.1474C119.826 49.3684 119.739 49.6368 119.732 49.9447V50.2053L119.479 50.1342C119.416 50.1184 119.345 50.1026 119.282 50.1026C119.116 50.1026 118.974 50.1658 118.824 50.3C118.579 50.5289 118.532 50.8526 118.539 51.0895V51.2947H118.255C118.129 51.3026 118.034 51.3579 117.963 51.4605C117.829 51.6579 117.805 51.9579 117.845 52.1711C118.011 53.0947 119.274 54.0263 120.237 54.2237L120.371 54.2474L120.726 56.8053L124.5 56.1342V56.15Z" fill="white"/>
<path d="M121.911 48.1132C121.911 48.1132 121.863 48.1132 121.839 48.1132C121.532 48.1684 121.374 48.5237 121.334 48.8316L121.255 49.4L120.75 49.1158C120.655 49.0605 120.568 49.0368 120.497 49.0368C120.458 49.0368 120.324 49.0368 120.15 49.2579C120 49.4474 119.929 49.6763 119.921 49.9368V50.45L119.416 50.3079C119.368 50.2921 119.321 50.2842 119.274 50.2842C119.203 50.2842 119.092 50.3 118.95 50.4342C118.761 50.6158 118.721 50.8763 118.729 51.0737V51.4921L118.326 51.4763H118.279C118.208 51.4763 118.161 51.5079 118.121 51.5711C118.034 51.6974 117.995 51.9263 118.034 52.1316C118.176 52.8895 119.282 53.8289 120.268 54.0263L120.545 54.0816L120.584 54.3579L120.892 56.5763L124.263 55.9763L123.718 53.2605L123.687 53.0868L123.797 52.9447C124.429 52.1079 124.776 51.3184 124.839 50.5842C124.871 50.1895 124.792 49.6289 123.774 49.2105V49.5184L124.105 49.8816L124.153 49.9289C124.153 49.9289 124.2 49.9842 124.232 50.0079L124.405 50.1816L124.326 50.4105C124.303 50.4816 124.263 50.5526 124.224 50.6237L124.192 50.6789L123.403 52.2579L123.442 50.4974C123.442 50.3947 123.442 50.2921 123.426 50.1895L123.371 49.6842L123.087 49.3605L123.055 49.3211L123.008 49.2737L122.984 49.2105L122.953 49.1237C122.953 49.1237 122.929 49.0684 122.921 49.0447C122.668 48.5711 122.266 48.0974 121.934 48.0974L121.911 48.1132ZM121.911 47.7184C122.503 47.7184 123 48.4053 123.245 48.8711C123.276 48.9342 123.3 48.9974 123.324 49.0605C123.339 49.0763 123.347 49.1 123.363 49.1158C123.363 48.9421 123.497 48.7921 123.655 48.7921C123.687 48.7921 123.726 48.7921 123.758 48.8079C124.595 49.1158 125.297 49.6447 125.211 50.6237C125.132 51.5395 124.658 52.4316 124.097 53.1895L124.721 56.3L120.545 57.0421L120.182 54.4211C119.092 54.2 117.813 53.1974 117.632 52.2105C117.553 51.7763 117.687 51.1684 118.208 51.0895C118.224 51.0895 118.232 51.0895 118.247 51.0895C118.271 51.0895 118.303 51.0895 118.326 51.0895C118.318 50.7342 118.421 50.3947 118.674 50.1579C118.863 49.9763 119.068 49.9053 119.266 49.9053C119.353 49.9053 119.432 49.9211 119.511 49.9447C119.511 49.6211 119.605 49.2974 119.818 49.0289C120.024 48.7605 120.253 48.6579 120.474 48.6579C120.624 48.6579 120.774 48.7053 120.924 48.7842C120.987 48.3105 121.255 47.8289 121.745 47.7342C121.792 47.7263 121.839 47.7184 121.887 47.7184H121.911ZM123.821 50.5211C123.861 50.45 123.908 50.3789 123.932 50.3C123.884 50.2526 123.845 50.2053 123.805 50.1658C123.821 50.2842 123.829 50.4026 123.821 50.5211Z" fill="black"/>
<path d="M142.674 160.179C143.842 160.179 145.713 159.658 145.926 159.453C146.211 159.168 146.132 156.563 145.958 155.442C145.626 155.316 144.079 155.118 142.816 155.118C141.687 155.118 141.521 155.276 141.513 155.284C141.276 155.592 141.718 158.182 141.884 159.161C141.955 159.571 142.011 159.895 142.026 160.053C142.026 160.084 142.145 160.187 142.674 160.187V160.179Z" fill="white"/>
<path d="M142.808 155.316C142.05 155.316 141.758 155.387 141.663 155.418C141.529 155.932 141.924 158.237 142.074 159.121C142.137 159.484 142.184 159.761 142.208 159.934C142.271 159.958 142.405 159.982 142.666 159.982C143.803 159.982 145.555 159.484 145.761 159.326C145.989 158.963 145.911 156.666 145.761 155.592C145.311 155.482 143.968 155.316 142.792 155.316H142.808ZM142.808 154.921C144.213 154.921 146.108 155.166 146.139 155.332C146.274 156.129 146.479 159.184 146.061 159.595C145.776 159.871 143.818 160.376 142.674 160.376C142.2 160.376 141.861 160.289 141.837 160.061C141.766 159.389 140.976 155.632 141.363 155.15C141.497 154.976 142.089 154.913 142.816 154.913L142.808 154.921Z" fill="black"/>
<path d="M146.368 158.655C146.368 158.655 148.374 161.521 146.937 163.779C146.937 163.779 136.492 164.268 133.342 163.779C133.342 163.779 133.263 159.926 135.963 159.603C138.663 159.271 141.711 159.318 141.711 159.318C141.711 159.318 144.403 160.787 146.368 158.655Z" fill="black"/>
<path d="M165.884 160.534C166.792 160.534 168.766 159.705 169.018 159.453C169.303 159.168 169.224 156.547 169.05 155.434C168.782 155.324 167.534 155.126 166.397 155.126C165.371 155.126 165.229 155.292 165.229 155.292C165.047 155.529 165.15 157.068 165.537 159.871C165.576 160.139 165.6 160.353 165.616 160.463C165.616 160.495 165.718 160.534 165.892 160.534H165.884Z" fill="white"/>
<path d="M166.397 155.324C165.726 155.324 165.466 155.395 165.387 155.426C165.268 155.813 165.387 157.297 165.734 159.839C165.758 160.037 165.782 160.203 165.797 160.321C165.821 160.321 165.853 160.321 165.892 160.321C166.737 160.321 168.639 159.532 168.876 159.318C169.105 158.955 169.026 156.65 168.876 155.576C168.489 155.474 167.4 155.316 166.397 155.316V155.324ZM166.397 154.929C167.613 154.929 169.208 155.158 169.239 155.332C169.374 156.129 169.579 159.184 169.161 159.595C168.853 159.895 166.824 160.732 165.884 160.732C165.608 160.732 165.434 160.661 165.411 160.487C165.339 159.816 164.684 155.655 165.071 155.174C165.213 155 165.75 154.937 166.397 154.937V154.929Z" fill="black"/>
<path d="M146.25 118.029C145.761 124.171 146.211 136.558 146.7 142.7C146.732 143.111 146.732 157.384 146.732 157.384L140.961 157.937C137.818 148.558 131.818 127.526 131.818 118.187C131.818 108.847 132.624 93.2947 136.058 85.9132C139.318 78.8947 152.187 88.5895 153.703 90.3105C154.397 91.1079 153.079 98.2132 151.247 102.918C149.124 108.374 146.518 114.729 146.258 118.037L146.25 118.029Z" fill="black"/>
<path d="M146.732 157.384L143.171 157.724C143.495 155.482 143.171 150.484 143.045 148.203C142.808 144.232 141.829 140.347 140.905 136.495C139.453 130.384 138.063 123.903 139.792 117.697C140.684 114.5 142.642 112.282 144.237 109.463C145.295 107.553 145.832 105.413 145.674 103.234C145.587 102.042 144.845 100.542 145.247 99.35C145.745 97.8421 150.245 92.7658 151.397 93.5316C152.787 94.4632 152.084 98.079 152.645 99.7526C150.521 105.208 146.518 114.729 146.25 118.029C145.761 124.171 146.771 136.503 147.111 142.661C147.442 148.787 146.732 157.384 146.732 157.384Z" fill="black"/>
<path d="M169.682 157.384L164.558 157.937C161.882 149.095 154.737 133.976 153.679 124.7C152.045 110.292 150.079 94.8658 149.992 91.0684C149.984 90.4605 149.976 90.1368 149.976 90.1368C153.505 85.8421 159.482 84.0895 162.15 83.7737C163.2 83.6474 163.966 83.8526 164.305 84.4053C165.387 86.2132 166.232 87.8868 166.887 89.4579C171.182 99.6579 167.566 105.824 167.645 119.087C167.645 119.853 167.653 120.642 167.676 121.416C167.811 126.903 166.334 133.653 167.913 139.384C171.008 150.618 169.697 157.384 169.697 157.384H169.682Z" fill="black"/>
<path d="M169.682 157.384L168.513 157.495C168.545 154.487 168.474 150.232 168.15 147.247C167.637 142.526 166.326 138.105 164.692 133.661C162.079 126.508 160.318 119.442 160.816 111.745C161.092 107.561 162.418 103.676 162.995 99.5632C163.366 96.9105 162.813 94.3684 162.395 91.7868C162.166 90.3184 161.968 88.85 162.016 87.3342C162.055 86.0947 166.879 87.0895 166.879 89.1263C171.174 99.3263 167.558 105.808 167.637 119.079C167.637 119.845 167.645 120.634 167.668 121.408C167.795 126.895 167.992 133.132 168.884 139.005C171.024 153.137 169.682 157.368 169.682 157.368V157.384Z" fill="black"/>
<path d="M169.468 158.655C169.468 158.655 171.474 161.521 170.037 163.779C170.037 163.779 159.592 164.268 156.442 163.779C156.442 163.779 156.363 159.926 159.063 159.603C161.763 159.271 165.229 159.129 165.229 159.129C165.229 159.129 167.503 160.795 169.461 158.663L169.468 158.655Z" fill="black"/>
<path d="M144.111 62.6395C144.111 62.6395 147.024 61.5895 146.708 63.4132C145.966 67.6921 140.179 77.2447 128.597 77.6079C120.15 77.8763 117.395 64.8579 118.761 58.8026C119.155 56.9868 119.558 55.7947 119.558 55.7947C119.771 54.6184 124.745 54.8789 124.745 54.8789C126.213 55.2263 127.097 66.6421 128.558 65.9C130.018 65.1579 137.021 52.1395 142.437 49.8184C145.745 48.4053 144.111 62.6395 144.111 62.6395Z" fill="#AAB6C2"/>
<path d="M118.761 58.8026C118.997 63.5237 121.626 69.1053 125.289 72.5316C129.434 76.4237 132.276 75.0895 135.876 71.5368C136.595 70.8342 137.218 69.6263 137.882 68.9474C140.945 63.3105 139.618 56.1974 142.445 50.3237C142.721 49.7553 143.637 50.1105 143.361 50.6789C142.555 52.3447 142.153 54.1211 141.916 55.9368C142.074 56.0158 142.192 56.1816 142.184 56.4105C142.121 57.7132 143.447 57.0737 143.408 58.4474C143.471 60.5 144.861 57.5789 144.521 59.4974C145.121 59.1579 146.929 61.4632 146.708 63.4132C145.966 67.6921 140.179 77.4974 128.597 77.6079C120.079 77.6868 117.395 64.8579 118.761 58.8026Z" fill="black"/>
<path d="M134.692 87.6105C134.842 88.0763 146.929 90.8632 150.632 91.4316C154.611 92.0553 159.308 92.2526 162.742 92.1026C165.379 91.9763 167.274 91.6447 167.526 91.1079C168.047 89.9868 166.989 80.1421 167.203 72.8868C167.242 71.7184 167.266 70.5342 167.274 69.3658C167.345 61.8184 166.847 54.5711 165.15 53.2684C164.779 52.9763 164.345 52.6684 163.863 52.3447C163.145 51.8553 162.308 51.3421 161.368 50.8526C159.892 50.079 158.163 49.3605 156.229 48.8632C153.253 48.0895 149.779 47.829 145.966 48.7053C145.966 48.7053 145.966 48.7132 145.958 48.7132C145.034 48.9184 144.095 49.1947 143.132 49.5579C142.903 49.6368 142.682 49.7237 142.445 49.8105C139.224 51.1053 139.682 58.1237 140.203 64.0132C140.439 66.7447 140.684 69.2316 140.589 70.7868C140.55 71.3079 140.495 71.829 140.392 72.3421C139.666 76.6763 135.245 84.4526 134.7 87.6026L134.692 87.6105Z" fill="#AAB6C2"/>
<path d="M149.218 49.6053C150.553 49.6053 152.234 48.4289 152.613 48.1526V43.7316L149.005 45.2237V48.2947L148.982 48.3421C148.8 48.6737 148.595 49.2421 148.705 49.4711C148.721 49.5105 148.753 49.55 148.847 49.5658C148.966 49.5895 149.092 49.5974 149.226 49.5974L149.218 49.6053Z" fill="white"/>
<path d="M152.408 44.0316L149.195 45.3658V48.3579L149.147 48.4447C148.958 48.8 148.816 49.2816 148.879 49.3842C148.982 49.4079 149.1 49.4158 149.218 49.4158C150.418 49.4158 151.934 48.4053 152.416 48.0579V44.0316H152.408ZM152.803 43.4395V48.2553C152.803 48.2553 150.805 49.8105 149.211 49.8105C149.068 49.8105 148.934 49.7947 148.8 49.7711C148.058 49.6211 148.8 48.2553 148.8 48.2553V45.1053L152.803 43.4474V43.4395Z" fill="black"/>
<path d="M162.568 55.8421C164.629 58.4947 165.442 59.7184 167.163 62.6079C167.376 62.9711 167.1 69.0026 167.282 69.3737C167.274 70.5421 167.25 71.7184 167.211 72.8947C166.997 80.15 168.971 90.9895 168.45 92.1105C168.197 92.6395 165.387 91.9842 162.75 92.1105C162.276 91.2658 162.474 90.3026 162.553 89.3789C162.703 87.5868 162.868 85.8026 163.026 84.0105C163.358 80.1579 164.179 78.5868 163.911 74.8763C163.618 70.8737 161.282 68.2763 159.971 64.4868C157.753 58.0842 161.621 55.1158 161.621 55.1158C161.337 54.6342 162.205 55.3684 162.576 55.85L162.568 55.8421Z" fill="black"/>
<path d="M167.811 102.808C167.937 102.808 168.079 102.784 168.197 102.745C169.2 102.382 170.084 100.574 169.776 99.5158C169.745 99.4053 169.697 99.2868 169.626 99.1684L169.571 99.0658L170.992 96.8711L168.497 94.2342L167.045 97.4079L166.887 97.3763C166.595 97.3132 166.311 97.2816 166.042 97.2816C165.513 97.2816 164.795 97.4 164.368 97.9605L164.242 98.0553C164.242 98.0553 164.179 98.0947 164.155 98.1105C163.65 98.5053 163.168 99.0816 163.342 99.5395C163.516 100.013 164.108 100.053 164.282 100.053H164.558L164.511 100.313C164.384 100.676 164.487 100.929 164.842 101.126C165.024 101.221 165.229 101.276 165.45 101.276C165.529 101.276 165.6 101.276 165.679 101.261L165.932 101.221L165.9 101.474C165.868 101.718 165.963 101.924 166.176 102.089C166.326 102.208 166.516 102.263 166.737 102.263C166.824 102.263 166.911 102.255 166.997 102.239L167.211 102.2L167.234 102.413C167.337 102.776 167.637 102.816 167.803 102.816L167.811 102.808Z" fill="white"/>
<path d="M168.561 94.5816L167.297 97.3447L167.163 97.629L166.855 97.5658C166.579 97.5105 166.303 97.4789 166.05 97.4789C165.568 97.4789 164.913 97.5816 164.534 98.079L164.495 98.1342L164.439 98.1737C164.439 98.1737 164.384 98.2132 164.353 98.2289C164.329 98.2447 164.305 98.2526 164.282 98.2763C163.816 98.6316 163.405 99.1447 163.532 99.4763C163.666 99.8316 164.132 99.8632 164.313 99.8632L164.889 99.8474L164.7 100.392C164.605 100.661 164.668 100.818 164.937 100.961C165.095 101.047 165.261 101.087 165.45 101.087C165.513 101.087 165.584 101.087 165.647 101.071L166.161 100.992L166.105 101.505C166.082 101.687 166.145 101.813 166.303 101.939C166.421 102.026 166.571 102.074 166.745 102.074C166.816 102.074 166.887 102.074 166.966 102.05L167.384 101.971L167.432 102.389V102.421C167.471 102.555 167.597 102.618 167.803 102.618C167.905 102.618 168.024 102.603 168.118 102.563C169.003 102.239 169.847 100.511 169.579 99.579C169.547 99.4763 169.508 99.3737 169.445 99.2632L169.334 99.0579L169.461 98.8605L170.732 96.8947L168.545 94.5895L168.561 94.5816ZM168.442 93.8868L171.237 96.8474L169.8 99.0737C169.863 99.2 169.926 99.3263 169.958 99.4605C170.282 100.574 169.374 102.524 168.253 102.926C168.118 102.974 167.961 103.005 167.803 103.005C167.479 103.005 167.163 102.879 167.053 102.539C167.037 102.5 167.037 102.461 167.037 102.421C166.934 102.437 166.839 102.453 166.737 102.453C166.492 102.453 166.255 102.389 166.058 102.239C165.758 102.011 165.671 101.734 165.703 101.45C165.616 101.466 165.529 101.474 165.442 101.474C165.205 101.474 164.968 101.418 164.747 101.3C164.242 101.032 164.187 100.637 164.321 100.25C164.305 100.25 164.289 100.25 164.274 100.25C163.808 100.25 163.318 100.068 163.153 99.6105C162.924 98.9868 163.579 98.3079 164.029 97.9605C164.084 97.9211 164.147 97.8895 164.203 97.85C164.605 97.3211 165.284 97.0921 166.034 97.0921C166.326 97.0921 166.626 97.1237 166.918 97.1868L168.426 93.8947L168.442 93.8868Z" fill="black"/>
<path d="M181.247 85.1237C177.616 92.9158 171.797 98.4105 171.797 98.4105L170.297 97.4553L165.971 94.7158C166.263 94.6132 168.174 90.2789 169.437 85.5421C170.234 82.5737 170.787 79.4553 170.542 77.1105C170.439 76.0842 168.687 74.2211 166.437 71.8526C163.042 68.2526 161.858 66.1211 160.105 61.3605C159.221 58.9605 159.458 56.7658 159.861 55.0447C160.421 52.6526 163.232 51.5632 165.308 52.8737C169.113 55.2737 172.05 57.4921 176.432 62.8447C176.684 63.1368 176.921 63.4526 177.15 63.7447C183.474 71.9316 184.389 78.4053 181.247 85.1237Z" fill="#AAB6C2"/>
<path d="M116.495 54.5868L119.818 56.1342C120.126 56.2763 120.489 56.1421 120.632 55.8342L126.308 43.8974L121.871 41.8368L116.195 53.7737C116.053 54.0816 116.187 54.4447 116.495 54.5868Z" fill="#1852FD"/>
<path d="M118.934 45.2395L120.395 45.9263L121.642 43.2421L120.718 42.8158L120.095 44.1579L118.934 45.2395Z" fill="black"/>
<path d="M119.171 45.3579L120.632 46.0368L121.879 43.3605L120.955 42.9263L120.332 44.2684L119.171 45.3579Z" fill="black"/>
<path d="M118.847 55.6842L119.818 56.1342C120.126 56.2763 120.489 56.1421 120.632 55.8342L126.308 43.8974L124.784 43.1868L118.847 55.6842Z" fill="black"/>
<path d="M127.089 41.0711C127.334 39.4842 128.818 38.3868 130.405 38.6316C131.992 38.8763 133.082 40.3605 132.845 41.9474C132.6 43.5342 131.116 44.6316 129.529 44.3868C127.942 44.1421 126.853 42.6579 127.089 41.0711Z" fill="#1852FD"/>
<path d="M117.032 24.3263C117.032 24.3263 120.766 32.5211 132.695 37.5974C132.695 37.5974 131.771 43.2737 128.084 45.7289C128.084 45.7289 116.061 37.3842 107.376 39.7605L117.024 24.3342L117.032 24.3263Z" fill="#1852FD"/>
<path d="M132.521 38.4184C132.497 38.5053 132.474 38.5921 132.45 38.6868C132.474 38.5921 132.497 38.4974 132.521 38.4184Z" fill="#1852FD"/>
<path d="M127.674 35.0395C128.029 35.2526 128.392 35.4579 128.755 35.6632C128.384 35.4579 128.029 35.2447 127.674 35.0395Z" fill="#1852FD"/>
<path d="M126.639 34.3921C126.979 34.6132 127.326 34.8263 127.674 35.0316C127.318 34.8184 126.979 34.6053 126.639 34.3842V34.3921Z" fill="#1852FD"/>
<path d="M124.532 39.0184C125.432 37.3684 126.142 35.6947 126.639 34.3921C126.979 34.6132 127.326 34.8263 127.674 35.0316C128.029 35.2447 128.392 35.45 128.755 35.6553C129 35.7895 129.253 35.9316 129.505 36.0658C129.75 36.1921 129.995 36.3263 130.239 36.4447C130.263 36.4526 130.287 36.4684 130.303 36.4763C130.508 36.5789 130.713 36.6816 130.926 36.7842C131.005 36.8237 131.092 36.8632 131.171 36.9026C131.4 37.0132 131.629 37.1158 131.858 37.2263C132.134 37.3526 132.403 37.4711 132.687 37.5895C132.687 37.5895 132.639 37.9053 132.513 38.4105C132.497 38.4974 132.474 38.5842 132.442 38.6789C132.426 38.7263 132.418 38.7737 132.403 38.8289C132.387 38.8763 132.379 38.9316 132.363 38.9789C132.339 39.0579 132.316 39.1447 132.284 39.2395C132.126 39.7763 131.913 40.4 131.629 41.0632C131.582 41.1737 131.534 41.2842 131.479 41.3947C131.455 41.45 131.432 41.5053 131.4 41.5605C131.376 41.6158 131.353 41.6711 131.321 41.7263C131.297 41.7816 131.266 41.8368 131.242 41.9C131.218 41.9553 131.187 42.0105 131.155 42.0658C130.453 43.4237 129.458 44.7974 128.076 45.7132C128.076 45.7132 125.668 44.1421 122.234 42.4447C123.087 41.4263 123.861 40.2263 124.524 39.0026L124.532 39.0184Z" fill="black"/>
<path d="M109.437 30.0026C111.521 26.1816 114.047 23.3711 115.642 22.9368L115.824 22.6053L116.534 22.9921C117.892 23.7737 116.953 28.1158 114.442 32.7263C111.924 37.3368 108.774 40.4711 107.384 39.7526L106.674 39.3658L106.855 39.0342C106.366 37.4553 107.361 33.8158 109.445 29.9947L109.437 30.0026Z" fill="black"/>
<path d="M107.132 39.6737C108.379 39.6737 110.282 38 112.224 35.1895C112.816 34.3368 113.384 33.4053 113.913 32.4421C114.442 31.4789 114.908 30.5 115.303 29.5447C116.842 25.8579 117.079 23.0632 115.911 22.4316C115.745 22.3447 115.555 22.2974 115.35 22.2974C113.708 22.2974 110.858 25.3368 108.568 29.5289C106.271 33.7368 104.897 38.6316 106.563 39.5474C106.729 39.6342 106.918 39.6816 107.124 39.6816L107.132 39.6737Z" fill="white"/>
<path d="M115.358 22.4947C113.818 22.4947 111.024 25.4553 108.75 29.6237C106.224 34.2579 105.292 38.6158 106.666 39.3737C106.8 39.4447 106.958 39.4842 107.132 39.4842C108.308 39.4842 110.218 37.7553 112.066 35.0868C112.642 34.2579 113.203 33.3421 113.747 32.3553C114.284 31.3763 114.75 30.4053 115.129 29.4737C116.566 26.0316 116.905 23.1974 115.824 22.6053C115.689 22.5263 115.532 22.4947 115.358 22.4947ZM115.358 22.1C115.595 22.1 115.816 22.1553 116.013 22.2579C117.545 23.0947 116.747 26.6079 115.492 29.6237C115.089 30.5868 114.616 31.5737 114.087 32.5368C113.558 33.5079 112.982 34.4395 112.389 35.3C110.408 38.1658 108.442 39.8711 107.132 39.8711C106.895 39.8711 106.674 39.8158 106.476 39.7132C104.629 38.7026 106.089 33.6658 108.403 29.4342C110.763 25.1158 113.621 22.1 115.358 22.1Z" fill="black"/>
<path d="M109.642 33.9263C110.874 34.0921 111.671 34.6842 112.066 35.0789C112.642 34.25 113.203 33.3342 113.747 32.3474C114.284 31.3684 114.75 30.3974 115.129 29.4658C114.553 29.3474 113.55 29 112.855 28.0368C111.245 28.5105 109.003 32.3711 109.642 33.9184V33.9263Z" fill="#1852FD"/>
<path d="M109.8 34.1632C110.534 34.1632 111.608 32.8132 112.295 31.5579C113.139 30.0105 113.637 28.2421 112.95 27.8711C112.871 27.8316 112.784 27.8079 112.689 27.8079C111.955 27.8079 110.882 29.1579 110.195 30.4132C109.35 31.9605 108.853 33.7289 109.539 34.1C109.618 34.1395 109.705 34.1632 109.8 34.1632Z" fill="white"/>
<path d="M112.689 28.0053C112.153 28.0053 111.166 29.0474 110.368 30.5079C109.484 32.1342 109.153 33.6658 109.642 33.9263C109.689 33.95 109.745 33.9658 109.808 33.9658C110.353 33.9658 111.332 32.9237 112.129 31.4632C113.013 29.8368 113.345 28.3053 112.855 28.0447C112.808 28.0211 112.753 28.0053 112.689 28.0053ZM112.689 27.6105C112.816 27.6105 112.934 27.6421 113.045 27.6974C114.008 28.2263 113.139 30.4289 112.468 31.6526C111.789 32.9 110.676 34.3605 109.8 34.3605C109.674 34.3605 109.555 34.3289 109.445 34.2737C108.482 33.7447 109.35 31.5421 110.021 30.3184C110.7 29.0711 111.813 27.6105 112.689 27.6105Z" fill="black"/>
<path d="M110.771 30.7289C110.289 31.6132 110.108 32.45 110.376 32.5921C110.637 32.7342 111.245 32.1342 111.734 31.25C112.216 30.3658 112.397 29.5289 112.129 29.3868C111.868 29.2447 111.261 29.8447 110.779 30.7289H110.771Z" fill="black"/>
<path d="M108.831 20.0068L111.139 23.1796L110.814 23.4165L108.505 20.2437L108.831 20.0068Z" fill="black"/>
<path d="M98.0752 31.287L105.499 32.2973L105.445 32.6962L98.0209 31.6859L98.0752 31.287Z" fill="black"/>
<path d="M103.617 27.0361L106.179 28.2832L106.003 28.6453L103.441 27.3981L103.617 27.0361Z" fill="black"/>
<path d="M101.156 23.0816L106.871 27.1959L106.636 27.5227L100.92 23.4083L101.156 23.0816Z" fill="black"/>
<path d="M104.265 36.9254L104.325 37.3236L100.444 37.9036L100.385 37.5054L104.265 36.9254Z" fill="black"/>
<path d="M124.342 51.7526C124.721 51.7526 124.824 51.3342 124.847 51.1526V51.0263C125.124 49.9921 124.784 49.1158 123.963 48.6974C123.584 48.5079 122.874 48.1447 122.289 48.1447C121.895 48.1447 121.611 48.3105 121.421 48.65C121.382 48.7211 121.382 48.8316 121.421 48.8947C121.453 48.9421 121.492 48.9658 121.547 48.9658H121.816C122.361 48.9658 122.961 49.0053 123.308 49.3211C123.655 49.6447 123.537 50.0395 123.442 50.3316C123.403 50.4579 123.363 50.5763 123.363 50.6868C123.339 51.1605 123.695 51.6026 124.184 51.7211C124.239 51.7368 124.287 51.7368 124.342 51.7368V51.7526Z" fill="white"/>
<path d="M122.289 48.35C121.966 48.35 121.753 48.4763 121.595 48.7526C121.595 48.7526 121.595 48.7684 121.595 48.7763H121.824C122.4 48.7763 123.047 48.8237 123.45 49.1868C123.892 49.5895 123.734 50.1026 123.639 50.4026C123.608 50.5211 123.568 50.6237 123.568 50.7026C123.553 51.0816 123.837 51.4447 124.239 51.5395C124.279 51.5474 124.318 51.5553 124.35 51.5553C124.579 51.5553 124.642 51.2553 124.658 51.1368C124.658 51.0974 124.658 51.0579 124.658 51.0184V50.9711L124.674 50.9237C124.926 50.0237 124.634 49.2579 123.884 48.8711C123.521 48.6816 122.834 48.3421 122.297 48.3421L122.289 48.35ZM122.289 47.9553C122.882 47.9553 123.561 48.2789 124.05 48.5316C125.037 49.0289 125.321 50.0395 125.037 51.0421C125.037 51.0974 125.053 51.1447 125.037 51.1921C124.974 51.6184 124.737 51.9579 124.334 51.9579C124.271 51.9579 124.208 51.95 124.137 51.9342C123.568 51.8 123.134 51.279 123.166 50.6947C123.182 50.2842 123.553 49.8342 123.166 49.4868C122.858 49.2105 122.266 49.1789 121.808 49.1789C121.713 49.1789 121.626 49.1789 121.547 49.1789C121.224 49.1789 121.113 48.8079 121.247 48.5711C121.492 48.1211 121.871 47.9632 122.289 47.9632V47.9553Z" fill="black"/>
<path d="M117.932 51.7684C118.05 51.7684 118.35 51.6816 118.342 51.5079L118.192 51.1211L118.579 51.2079C118.689 51.2474 118.792 51.2632 118.887 51.2632C119.108 51.2474 119.329 51.1684 119.408 51.0421C119.432 51.0026 119.463 50.9395 119.408 50.8132C119.353 50.6789 119.258 50.5447 119.108 50.4184L118.745 50.0947L119.226 50.0711C119.479 50.0553 119.668 49.9368 119.803 49.7C119.882 49.5737 119.905 49.4632 119.874 49.3684C119.842 49.25 119.724 49.1316 119.518 49.0132L118.926 48.6816L119.605 48.65C119.905 48.6342 120.134 48.5553 120.205 48.4526C120.221 48.4368 120.261 48.3737 120.205 48.2316C120.134 48.0184 119.897 47.8211 119.7 47.6632L119.613 47.5921C119.329 47.3553 119.013 47.15 118.658 46.9763L118.579 46.9605L118.539 46.8974C118.405 46.9526 118.161 47.0868 118.066 47.2842C118.011 47.4026 118.018 47.5211 118.089 47.6553C118.153 47.7737 118.232 47.8842 118.326 48.0026L118.729 48.4842L118.129 48.3263C118.034 48.3026 117.955 48.2868 117.884 48.2868C117.718 48.2868 117.616 48.3579 117.561 48.5158C117.434 48.8395 117.679 49.1789 117.9 49.4L118.129 49.6368L117.813 49.7316C117.624 49.8184 117.497 49.8816 117.474 50.0158C117.458 50.1184 117.505 50.2368 117.639 50.4105L117.876 50.7263H117.482C117.316 50.9632 117.339 51.2632 117.434 51.4526C117.529 51.65 117.711 51.7684 117.916 51.7684H117.924H117.932Z" fill="white"/>
<path d="M118.532 47.1421C118.413 47.1895 118.311 47.2763 118.271 47.3632C118.247 47.4026 118.239 47.4658 118.287 47.5605C118.342 47.6632 118.413 47.7658 118.5 47.8763L119.005 48.4842L119.613 48.4526C119.889 48.4368 120.032 48.3737 120.055 48.3579C120.055 48.3579 120.055 48.3342 120.039 48.2868C119.984 48.1289 119.763 47.9395 119.597 47.8053L119.511 47.7342C119.258 47.5132 118.974 47.3316 118.634 47.1579L118.539 47.1421H118.532ZM117.9 48.4763C117.821 48.4763 117.789 48.4921 117.758 48.5789C117.671 48.8 117.868 49.0684 118.05 49.2579L118.532 49.7474L117.876 49.9211C117.805 49.9526 117.687 50.0158 117.679 50.0474C117.679 50.0553 117.679 50.1184 117.805 50.2921L118.263 50.9L118.642 51.0263C118.729 51.0579 118.808 51.0658 118.887 51.0658H118.926C119.084 51.05 119.218 50.9711 119.234 50.9395C119.234 50.9395 119.234 50.9237 119.218 50.8921C119.179 50.7816 119.092 50.6789 118.974 50.5763L118.239 49.9368L119.211 49.8895C119.392 49.8816 119.526 49.7947 119.629 49.6211C119.653 49.5737 119.7 49.4868 119.684 49.4395C119.676 49.4079 119.637 49.3289 119.424 49.2026L118.366 48.6026L118.082 48.5237C118.003 48.5 117.939 48.4921 117.884 48.4921L117.9 48.4763ZM117.916 50.9158H117.632C117.553 51.0816 117.576 51.2474 117.632 51.3579C117.663 51.4211 117.75 51.5632 117.939 51.5632C118.011 51.5632 118.105 51.5237 118.153 51.4921L117.924 50.9079L117.916 50.9158ZM118.603 46.7158C118.658 46.7158 118.697 46.7395 118.721 46.7789C118.737 46.7789 118.753 46.7789 118.761 46.7868C119.116 46.9605 119.447 47.1658 119.763 47.4342C119.976 47.6158 120.308 47.8605 120.411 48.1605C120.6 48.6974 120.024 48.8237 119.637 48.8474C119.984 49.0447 120.268 49.3368 119.992 49.8105C119.803 50.1342 119.534 50.2605 119.25 50.2763C119.4 50.4105 119.526 50.5605 119.605 50.7421C119.795 51.2079 119.289 51.4368 118.966 51.4605C118.942 51.4605 118.918 51.4605 118.895 51.4605C118.768 51.4605 118.642 51.4368 118.524 51.3974C118.539 51.4289 118.547 51.4684 118.547 51.5079C118.547 51.8316 118.153 51.9658 117.939 51.9658H117.924C117.292 51.9658 116.929 51.1447 117.379 50.5763C117.403 50.5447 117.45 50.5289 117.489 50.5289C117.371 50.3711 117.261 50.1816 117.284 49.9842C117.324 49.7316 117.561 49.6289 117.734 49.5421C117.742 49.5421 117.75 49.5421 117.758 49.5421C117.458 49.2342 117.229 48.8395 117.371 48.4526C117.474 48.1921 117.663 48.0974 117.884 48.0974C117.979 48.0974 118.082 48.1132 118.184 48.1447C118.082 48.0263 117.995 47.8921 117.924 47.7579C117.647 47.2289 118.137 46.8184 118.555 46.7316C118.563 46.7316 118.579 46.7316 118.587 46.7316L118.603 46.7158Z" fill="black"/>
<path d="M148.982 46.6921C150.095 46.6921 151.168 46.2263 152.108 45.3421C155.068 42.5474 154.65 38.3711 154.532 37.5421L147.213 36.95C146.913 37.5816 145.532 40.6211 145.161 43.4316C145.082 44.0158 145.334 44.6868 145.855 45.2789C146.629 46.1632 147.797 46.6921 148.982 46.6921Z" fill="white"/>
<path d="M147.332 37.1632C146.945 37.9921 145.705 40.8342 145.358 43.4632C145.287 43.9842 145.524 44.6079 146.005 45.1526C146.739 45.9974 147.853 46.4947 148.982 46.4947C150.039 46.4947 151.074 46.0447 151.966 45.2C154.697 42.6184 154.476 38.8053 154.35 37.7316L147.332 37.1632ZM147.095 36.7447L154.705 37.3605C154.705 37.3605 155.653 42.2789 152.25 45.4842C151.184 46.4868 150.047 46.8816 148.989 46.8816C146.668 46.8816 144.766 44.9711 144.971 43.4C145.397 40.1868 147.095 36.7368 147.095 36.7368V36.7447Z" fill="black"/>
<path d="M155.558 41.0158C155.558 41.0158 155.597 40.8658 155.661 40.7158C155.984 39.8947 155.755 38.9632 155.179 38.3158C154.934 38.0395 154.571 38.0711 154.342 38.2447C154.334 38.2447 154.326 38.2447 154.311 38.2447C153.339 38.1737 153.339 39.35 153.205 39.9974C152.984 41.0789 152.305 42.3816 152.645 43.5026C152.874 44.2526 153.6 44.7184 154.374 44.4895C155.305 44.2132 155.211 43.3447 155.526 42.6342C155.716 42.2079 155.858 41.9079 155.739 41.4263C155.7 41.2842 155.621 41.1579 155.55 41.0316L155.558 41.0158Z" fill="black"/>
<path d="M146.787 33.0579C147.434 33.1053 147.876 33.3658 148.468 33.5947C149.463 33.9816 150.308 33.9737 151.334 33.9974C152.605 34.0211 153.821 34.1158 154.792 35.0237C156.324 36.4684 156.805 39.9026 155.866 41.9711C155.826 42.3658 155.708 42.7289 155.25 42.9895C154.547 43.3921 153.734 43.1158 153.332 42.4368C152.739 41.4263 153.087 39.9974 153.047 38.8921C153.047 38.6395 152.992 38.3237 152.992 38.0158C150.063 38.5289 146.139 39.0421 144.189 36.95C142.192 34.8026 144.363 32.8921 146.779 33.05L146.787 33.0579Z" fill="black"/>
<path d="M124.658 51.1526C124.658 51.1526 124.445 52.0053 124.374 52.0921C124.303 52.1789 123.395 52.8263 123.395 52.8263L122.795 52.3842L122.653 51.5947L122.842 51.1921L123.805 50.9316L124.658 51.1526Z" fill="white"/>
</g>
<g clip-path="url(#clip2_610_44105)">
<path d="M68.204 124.338C68.0975 124.279 67.7031 123.367 67.2912 121.808C67.2578 121.679 67.2256 121.556 67.196 121.429L57.0972 83.0973L95.5657 75.0947L101.619 114.456L101.626 114.533L101.647 114.665C101.888 116.229 101.895 117.215 101.809 117.35L68.2047 124.341L68.204 124.338Z" fill="white"/>
<path d="M95.4978 75.19L101.529 114.394L101.522 114.395L101.547 114.546L101.557 114.592L101.568 114.678C101.784 116.092 101.81 117.058 101.749 117.281L68.2414 124.252C68.0965 124.071 67.7347 123.175 67.3691 121.792C67.3363 121.666 67.3035 121.539 67.2738 121.412L57.1974 83.1576L95.4978 75.19ZM95.6304 75L57 83.0363L67.1194 121.451C67.1515 121.574 67.1812 121.701 67.2146 121.831C67.6009 123.297 68.0489 124.451 68.2171 124.416L101.837 117.422C102.005 117.387 101.956 116.15 101.725 114.652C101.716 114.608 101.71 114.564 101.704 114.52L101.71 114.518L95.6304 75Z" fill="black"/>
<path d="M80.3843 102.272L75.2959 103.33L74.2795 98.9445L79.4583 97.8672L80.3843 102.272Z" fill="#AAB6C2"/>
<path d="M73.0661 103.794L67.9777 104.853L67.2721 102.179L72.4166 101.109L73.0661 103.794Z" fill="#1852FD"/>
<path d="M87.3505 100.823L82.2621 101.881L80.7911 94.5912L86.029 93.5016L87.3505 100.823Z" fill="black"/>
<path d="M94.3137 99.374L89.2283 100.432L87.4651 90.1911L92.7653 89.0886L94.3137 99.374Z" fill="#1852FD"/>
<path d="M66.2486 100.508C66.1659 100.532 66.0717 100.532 65.9841 100.501C65.7908 100.431 65.7013 100.235 65.783 100.066L68.306 94.8429C68.3791 94.6945 68.5525 94.6064 68.7305 94.6344L73.5031 95.3374L75.7603 89.2116C75.7982 89.1127 75.8787 89.031 75.9831 88.9866C76.0876 88.9421 76.2042 88.9406 76.3044 88.9847L81.3439 91.1267L82.8611 84.9112C82.8859 84.8118 82.9545 84.7195 83.047 84.6646C83.1395 84.6096 83.2523 84.5894 83.3579 84.6129L87.8541 85.6269L89.9893 80.7577C90.0745 80.5581 90.3088 80.4508 90.5084 80.5198C90.7072 80.5856 90.8006 80.8001 90.7154 80.9998L88.4328 86.1757C88.3562 86.3541 88.1475 86.4593 87.9569 86.4177L83.5332 85.4244L81.9821 91.6957C81.9554 91.802 81.8776 91.8962 81.7682 91.9481C81.6588 92.0001 81.5359 92.003 81.4295 91.9601L76.3532 89.8128L74.1213 95.8261C74.0584 95.9919 73.872 96.0957 73.684 96.0665L68.892 95.3642L66.4824 100.32C66.4369 100.414 66.3501 100.48 66.2486 100.508Z" fill="#1852FD"/>
<path d="M91.6553 82.6756C91.4717 82.73 91.2771 82.6535 91.2035 82.4869L90.4171 80.659L88.1834 81.9001C87.9877 82.0058 87.7521 81.9508 87.6534 81.7732C87.5548 81.5955 87.6297 81.3623 87.8247 81.2535L90.4478 79.7916C90.5466 79.7353 90.6638 79.7207 90.7676 79.7511C90.8713 79.7815 90.9542 79.852 90.9936 79.9477L91.9357 82.1494C92.0133 82.3347 91.9171 82.5594 91.715 82.6502C91.6939 82.6578 91.6758 82.6648 91.6578 82.6718L91.6553 82.6756Z" fill="#1852FD"/>
<path d="M67.2538 109.431L67.4227 110.056L83.7593 106.657L83.6496 106.021L67.2538 109.431Z" fill="black"/>
<path d="M67.7567 111.302L67.9205 111.918L97.2242 105.822L97.1476 105.188L67.7567 111.302Z" fill="black"/>
<path d="M68.2506 113.145L68.4163 113.754L95.4218 108.136L95.3433 107.509L68.2506 113.145Z" fill="black"/>
<path d="M85.4689 106.302L90.5107 105.253L90.4196 104.612L85.3623 105.664L85.4689 106.302Z" fill="black"/>
<path d="M68.7085 114.847L68.8684 115.444L84.8594 112.117L84.7555 111.509L68.7085 114.847Z" fill="black"/>
<path d="M69.1883 116.638L69.3469 117.229L98.034 111.261L97.9626 110.652L69.1883 116.638Z" fill="black"/>
<path d="M69.6636 118.407L69.8203 118.989L96.2652 113.487L96.1895 112.889L69.6636 118.407Z" fill="black"/>
<path d="M86.5347 111.769L91.4706 110.742L91.3823 110.13L86.434 111.159L86.5347 111.769Z" fill="black"/>
<path d="M101.837 117.422L68.2202 124.416C68.3279 124.387 68.2908 123.865 68.1446 123.099L101.381 116.185C101.553 116.945 101.727 117.439 101.837 117.422Z" fill="black"/>
</g>
<defs>
<clipPath id="clip0_610_44105">
<rect width="91.6139" height="54" fill="white" transform="translate(143 18)"/>
</clipPath>
<clipPath id="clip1_610_44105">
<rect width="84.979" height="144" fill="white" transform="matrix(-1 0 0 1 183 20)"/>
</clipPath>
<clipPath id="clip2_610_44105">
<rect width="39.4575" height="42.7973" fill="white" transform="translate(57 83.0363) rotate(-11.7516)"/>
</clipPath>
</defs>
</svg>
